<svg width="571" height="677" viewBox="0 0 571 677" fill="none" xmlns="http://www.w3.org/2000/svg">
<path fill-rule="evenodd" clip-rule="evenodd" d="M439.494 1.48558V17.9176L476.004 56.6551C480.661 56.2009 485.33 56.1603 489.6 58.4678C489.115 58.9928 488.689 59.7164 488.254 60.4573C487.122 62.3834 485.921 64.4261 483.425 63.399C483.006 63.2367 482.594 63.0566 482.182 62.8766L482.171 62.8719C482.085 62.8341 481.999 62.7964 481.913 62.7588L481.765 62.6949L481.648 62.6448L483.025 64.1033C484.128 63.7897 485.34 63.8424 486.457 64.375C488.897 65.5389 489.931 68.4573 488.768 70.8946C487.605 73.3331 484.684 74.3672 482.245 73.2047C479.994 72.1328 478.964 69.5685 479.728 67.2624L434.928 19.7276V4.36352C432.286 6.33304 429.886 8.61341 427.76 11.125V23.7221L463.348 58.238C464.555 57.7784 465.936 57.7851 467.192 58.384C469.633 59.5465 470.666 62.465 469.503 64.9035C468.342 67.3421 465.421 68.3762 462.981 67.2124C460.861 66.2026 459.806 63.8641 460.331 61.6702L423.195 25.6524V17.6473C422.099 19.583 421.149 21.6039 420.379 23.6991C418.632 23.595 416.888 23.545 415.144 23.518V28.4465L466.255 80.4596C467.457 80.0081 468.831 80.0204 470.081 80.6152C472.52 81.779 473.553 84.6974 472.391 87.136C471.229 89.5733 468.308 90.6073 465.868 89.4448C463.744 88.4324 462.687 86.0843 463.221 83.885L410.579 30.312V23.5274C400.01 23.7477 389.507 25.2306 379.118 27.2799V65.2118L421.976 109.558V127.796C424.287 127.087 426.625 126.475 428.966 125.97C431.284 125.476 433.611 125.061 435.943 124.706V109.715L394.556 68.6155V38.801C394.513 38.7844 394.469 38.7708 394.426 38.7572C394.393 38.7468 394.36 38.7364 394.327 38.7248C394.294 38.7132 394.261 38.7002 394.229 38.6847C391.791 37.5222 390.756 34.6038 391.919 32.1652C393.082 29.7266 396.002 28.6925 398.44 29.855C400.879 31.0176 401.915 33.936 400.752 36.3746C400.374 37.1694 399.796 37.7967 399.12 38.2644V66.7162L440.508 107.817V124.092C447.939 123.219 455.426 122.923 462.923 122.879V120.272C460.964 118.936 460.204 116.349 461.256 114.143C462.42 111.704 465.34 110.67 467.778 111.833C470.217 112.995 471.252 115.914 470.088 118.352C469.539 119.505 468.588 120.331 467.488 120.772V122.881C471.532 122.904 475.577 122.979 479.614 123.054C482.581 123.109 485.545 123.164 488.502 123.198C489.88 123.169 491.267 123.124 492.659 123.071V117.507L476.888 104.909C475.618 105.482 474.125 105.535 472.769 104.889C470.33 103.728 469.295 100.809 470.458 98.3705C471.621 95.9319 474.542 94.8978 476.98 96.0603C479.002 97.0241 480.035 99.1924 479.677 101.296L497.224 115.312V122.843C501.52 122.572 505.831 122.121 510.057 121.34L505.332 118.377V103.384L488.061 88.5864C487.345 88.5905 486.622 88.4553 485.934 88.1268C483.494 86.9657 482.46 84.0459 483.621 81.6073C484.785 79.1687 487.705 78.1346 490.143 79.2971C492.583 80.4596 493.617 83.3795 492.456 85.8181C492.395 85.9424 492.314 86.0451 492.245 86.1627L509.896 101.285V115.853L516.337 119.892C521.369 118.492 526.206 116.499 530.664 113.625C534.374 111.187 537.638 107.667 539.868 103.64L523.455 89.1164C522.076 90.0126 520.284 90.2045 518.688 89.4448C516.249 88.2823 515.214 85.3625 516.379 82.9253C517.54 80.4881 520.461 79.454 522.901 80.6152C524.643 81.4465 525.649 83.174 525.669 84.9813L541.806 99.2613C542.379 97.5189 542.744 95.7265 542.866 93.9205L514.518 68.9967C513.217 69.6415 511.651 69.7253 510.238 69.0521C508.126 68.0451 507.074 65.7214 507.584 63.5329C504.622 61.4376 501.661 59.3397 498.726 57.2066L498.707 57.1514C497.442 53.4659 496.116 49.6039 493.938 46.3466V48.2485C495.984 49.5584 496.798 52.1997 495.724 54.449C494.561 56.8876 491.642 57.9217 489.202 56.7578C486.763 55.5966 485.729 52.6782 486.892 50.2383C487.421 49.1285 488.324 48.3269 489.372 47.8754V41.587C484.674 37.9468 479.615 34.8232 474.559 31.7008C473.954 31.3274 473.349 30.9539 472.745 30.5796C472.954 31.584 472.868 32.6572 472.391 33.6548C471.229 36.0934 468.308 37.1275 465.868 35.9664C463.429 34.8025 462.396 31.8841 463.559 29.4455C464.025 28.4668 464.781 27.7274 465.671 27.2529V26.0268C465.389 25.8357 465.104 25.6472 464.821 25.457C464.612 25.3164 464.403 25.1748 464.197 25.0306C462.28 22.1861 460.796 19.028 459.311 15.8672C456.85 10.6297 454.385 5.38461 449.94 1.54638C448.504 0.442001 446.891 0 445.242 0C443.296 0 441.3 0.616403 439.494 1.48558ZM420.302 65.5659C417.864 64.4034 416.828 61.4849 417.992 59.045C419.154 56.6078 422.075 55.575 424.514 56.7362C426.953 57.9001 427.988 60.8185 426.824 63.2558C426.786 63.3347 426.74 63.4054 426.693 63.4763L426.68 63.4972C426.67 63.5112 426.661 63.5251 426.652 63.5392C426.639 63.5594 426.627 63.5797 426.614 63.6004L444.266 78.724V93.292L452.462 98.4327C453.848 97.5121 455.659 97.3054 457.271 98.0732C459.709 99.2357 460.743 102.154 459.582 104.593C458.417 107.03 455.498 108.064 453.06 106.902C451.29 106.059 450.274 104.29 450.285 102.453L439.7 95.8143V80.8219L422.431 66.0255H422.402C421.696 66.0255 420.982 65.889 420.302 65.5659Z" fill="#FCF7FF"/>
<path d="M353.651 33.2967C357.347 32.2653 361.053 31.2839 364.787 30.412C368.028 29.6483 371.285 28.9102 374.553 28.2168V67.057L417.412 111.402V129.357C414.035 130.66 410.799 132.28 407.774 134.226V112.505L366.387 71.4042V42.9524C367.063 42.4846 367.639 41.8574 368.017 41.0639C369.182 38.6253 368.146 35.7056 365.708 34.543C363.268 33.3819 360.349 34.4146 359.186 36.8532C358.023 39.2904 359.057 42.2102 361.497 43.3727C361.602 43.4241 361.714 43.4484 361.823 43.489V73.3035L403.209 114.403V137.588C402.33 138.335 401.465 139.105 400.647 139.936C399.876 140.715 399.135 141.518 398.392 142.321C398.123 142.612 397.854 142.903 397.584 143.194V117.794L353.651 75.4744V33.2967Z" fill="#FCF7FF"/>
<path d="M326.202 41.3791V164.038L361.801 195.595C362.719 193.847 363.647 192.107 364.588 190.379C364.809 189.982 365.036 189.588 365.263 189.194L365.267 189.186C365.42 188.92 365.573 188.655 365.724 188.389L339.09 164.08V37.5711C334.799 38.8634 330.508 40.1517 326.202 41.3791Z" fill="#FCF7FF"/>
<path d="M282.575 48.8381C285.799 48.8327 289.028 48.6867 292.271 48.3366C292.552 48.3099 292.833 48.2767 293.114 48.2436C293.316 48.2198 293.518 48.1959 293.72 48.1744V200.875H314.7L346.957 229.432C345.871 232.729 344.9 236.064 344.056 239.435L306.381 206.247L305.733 205.679H282.806C283.481 189.058 284.081 172.433 284.674 155.809C283.996 158.461 283.293 161.109 282.575 163.756V48.8381Z" fill="#FCF7FF"/>
<path d="M352.338 296.247L364.032 305.916C364.558 305.942 365.083 305.966 365.608 305.991L366.339 306.025L366.347 306.026C367.808 306.094 369.27 306.163 370.732 306.236C371.239 306.262 371.746 306.288 372.253 306.315L351.855 289.198C352.007 291.547 352.169 293.898 352.338 296.247Z" fill="#FCF7FF"/>
<path d="M27.4675 340.772C367.117 311.944 507.438 332.988 507.438 332.988C444.895 319.696 376.941 315.035 312.34 315.037C160.583 315.041 27.4675 340.772 27.4675 340.772Z" fill="#FCF7FF"/>
<path d="M250.982 226.58L260.177 236.93V271.449L268.856 280.956C265.471 266.439 266.054 251.54 268.299 236.874L256.951 224.102C254.99 224.994 252.994 225.807 250.982 226.58Z" fill="#FCF7FF"/>
<path d="M269.265 231.09L261.228 222.044C265.125 220.073 268.898 217.895 272.503 215.555C271.32 220.673 270.21 225.862 269.265 231.09Z" fill="#FCF7FF"/>
<path d="M352.074 246.497L399.434 288.216V308.074C403.15 308.358 406.864 308.666 410.579 308.981V286.435C409.321 286.162 408.068 285.897 406.824 285.631C406.491 284.321 406.219 283.003 405.976 281.682L355.17 236.702C354.054 239.941 353.041 243.214 352.074 246.497Z" fill="#FCF7FF"/>
<path d="M184.609 80.0921C185.092 78.9242 185.077 77.6847 184.684 76.583L217.031 41.5493C227.72 41.7166 238.33 43.4551 248.941 45.1936C252.991 45.8572 257.041 46.5208 261.095 47.097V193.88C260.127 194.393 259.313 195.214 258.86 196.306C257.824 198.801 259.009 201.663 261.505 202.698C264 203.733 266.863 202.548 267.897 200.053C268.872 197.705 267.864 195.05 265.661 193.882V47.7038C269.77 48.2067 273.885 48.588 278.01 48.7515V179.236C275.547 186.849 272.757 194.355 269.461 201.662C269.239 202.112 269.021 202.572 268.802 203.036L268.799 203.042C267.346 206.119 265.816 209.355 262.548 210.839C259.962 212.238 257.287 213.463 254.549 214.529L248.516 207.739V137.057C249.436 136.538 250.204 135.739 250.64 134.69C251.674 132.195 250.492 129.333 247.996 128.299C245.5 127.263 242.637 128.446 241.602 130.941C240.611 133.33 241.669 136.039 243.951 137.174V209.472L249.89 216.158C247.719 216.842 245.516 217.43 243.289 217.919L237.859 211.807V52.5161C238.842 52.0038 239.667 51.1765 240.126 50.0735C241.161 47.5781 239.978 44.7152 237.483 43.6811C234.986 42.6456 232.123 43.8298 231.088 46.3251C230.117 48.6623 231.113 51.3023 233.294 52.4797V213.538L238.043 218.887C234.04 219.489 229.996 219.79 225.955 219.798V101.683C226.884 101.165 227.663 100.36 228.101 99.3021C229.138 96.8081 227.954 93.9464 225.459 92.9109C222.963 91.8768 220.1 93.0597 219.064 95.555C218.077 97.9354 219.125 100.631 221.39 101.774V219.685C219.195 219.568 217.008 219.371 214.841 219.081C214.473 219.038 214.105 218.979 213.738 218.921L213.614 218.901V79.0026C214.457 78.4822 215.156 77.7117 215.564 76.7276C216.599 74.2322 215.415 71.3706 212.92 70.3365C210.424 69.3011 207.561 70.4838 206.525 72.9791C205.509 75.4313 206.642 78.2267 209.048 79.3054V217.798C205.936 216.777 203.003 215.247 200.505 213.212V114.354L183.798 97C184.175 94.7993 183.007 92.5541 180.857 91.6619C178.362 90.6278 175.499 91.8106 174.464 94.306C173.428 96.8 174.612 99.6616 177.108 100.697C178.398 101.232 179.783 101.165 180.966 100.639L195.941 116.194V208.139C194.949 206.6 194.148 204.91 193.596 203.065C193.435 216.67 189.078 230.077 181.84 241.558C179.299 246.037 176.053 250.19 172.702 254.295V126.509L163.447 114.062C163.703 113.731 163.934 113.374 164.102 112.968C165.138 110.474 163.953 107.613 161.457 106.577C158.96 105.543 156.099 106.726 155.063 109.221C154.029 111.717 155.211 114.578 157.707 115.612C158.183 115.81 158.671 115.902 159.158 115.945L168.137 128.02V259.87C165.085 263.647 162.172 267.49 159.852 271.611V128.161L148.237 116.403C148.683 114.162 147.507 111.844 145.313 110.934C142.818 109.9 139.954 111.083 138.918 113.578C137.884 116.073 139.067 118.935 141.563 119.969C142.821 120.491 144.171 120.446 145.332 119.958L155.286 130.034V284.079C155.113 285.126 154.981 286.193 154.908 287.288C154.952 287.29 154.996 287.294 155.04 287.299C155.066 287.302 155.092 287.305 155.118 287.308C155.174 287.315 155.23 287.321 155.286 287.326V313.623C152.924 313.928 150.561 314.232 148.2 314.545V138.363L137.869 129.003C138.18 126.844 137.025 124.668 134.917 123.792C132.422 122.758 129.558 123.941 128.523 126.436C127.487 128.931 128.672 131.793 131.168 132.829C132.507 133.383 133.943 133.283 135.154 132.701L143.636 140.386V315.157C141.752 315.409 139.867 315.662 137.983 315.916L130.128 316.972V294.599C131.661 293.779 132.715 292.184 132.715 290.327C132.715 287.638 130.536 285.459 127.847 285.459C125.157 285.459 122.979 287.638 122.979 290.327C122.979 292.184 124.031 293.779 125.563 294.599V317.579C120.542 318.249 115.521 318.91 110.496 319.535C109.357 316.198 108.757 312.773 108.401 309.309L108.551 309.167C108.915 309.253 109.289 309.309 109.677 309.309C112.388 309.309 114.587 307.11 114.587 304.401C114.587 301.689 112.388 299.491 109.677 299.491C109.023 299.491 108.403 299.625 107.833 299.856C107.74 297.445 107.644 295.037 107.453 292.649C107.199 287.536 106.98 282.409 106.791 277.278C108.299 276.368 109.318 274.731 109.318 272.84C109.318 270.834 108.169 269.112 106.503 268.247C106.412 264.88 106.339 261.514 106.293 258.145L139.06 227.779V150.401C139.935 149.882 140.664 149.1 141.083 148.087C142.12 145.593 140.936 142.731 138.44 141.696C135.945 140.661 133.082 141.845 132.046 144.34C131.041 146.764 132.141 149.521 134.495 150.626V225.788L106.245 251.968C106.151 231.845 107.006 211.719 109.602 191.828C109.778 191.565 109.934 191.283 110.058 190.98C110.522 189.865 110.52 188.683 110.178 187.618C110.588 184.754 111.04 181.895 111.528 179.043L112.881 180.858C112.862 180.892 112.842 180.925 112.822 180.959L112.821 180.96C112.734 181.109 112.646 181.258 112.579 181.422C111.543 183.916 112.726 186.777 115.221 187.811C117.717 188.848 120.58 187.664 121.616 185.169C122.65 182.675 121.467 179.814 118.971 178.779C118.249 178.479 117.498 178.384 116.767 178.434L112.65 172.908C113.124 170.451 113.621 167.999 114.158 165.551L121.717 175.451C120.81 177.903 121.981 180.651 124.418 181.662C126.913 182.698 129.776 181.514 130.811 179.018C131.846 176.523 130.663 173.663 128.168 172.626C127.167 172.212 126.112 172.167 125.137 172.407L115.478 159.758C116.241 156.602 117.051 153.454 117.931 150.319C117.151 151.223 116.413 152.349 115.65 153.51C114.9 154.654 114.127 155.832 113.271 156.867L105.65 146.887C105.714 146.41 105.781 145.935 105.847 145.463C105.935 144.838 106.022 144.219 106.103 143.607C110.549 120.085 121.098 97.6449 136.707 79.4501C146.947 67.4397 159.787 57.4745 174.111 50.7859L129.16 99.0088C129.131 98.9955 129.105 98.9787 129.079 98.963C129.059 98.9513 129.039 98.9403 129.018 98.9317C126.522 97.8962 123.659 99.0804 122.623 101.576C121.587 104.07 122.772 106.93 125.268 107.965C127.765 109.001 130.628 107.818 131.661 105.324C132.02 104.46 132.097 103.556 131.962 102.696L184.129 46.7334C190.611 44.5178 197.321 42.9606 204.183 42.1995C206.369 41.9265 208.55 41.7534 210.728 41.648L181.314 73.5036C178.99 72.8994 176.517 74.0619 175.572 76.3437C174.536 78.8377 175.719 81.6994 178.216 82.7335C180.71 83.7689 183.573 82.5862 184.609 80.0921Z" fill="#FCF7FF"/>
<path d="M282.621 210.241C282.149 221.608 281.614 232.974 281.035 244.337L287.555 251.676V276.566L296.429 283.8C297.654 283.188 299.123 283.069 300.489 283.637C302.985 284.671 304.168 287.532 303.132 290.026C302.098 292.522 299.235 293.705 296.739 292.67C294.654 291.805 293.506 289.666 293.781 287.531L282.99 278.734V253.409L280.694 250.824C280.655 251.551 280.618 252.278 280.58 253.005L280.478 255.009C280.357 257.382 280.237 259.756 280.1 262.13C279.986 263.771 279.881 265.415 279.776 267.06C279.281 274.811 278.784 282.583 277.308 290.212L290.426 304.581C296.225 304.515 302.024 304.5 307.822 304.515V281.582L296.683 270.971C295.612 271.321 294.422 271.323 293.3 270.858C290.805 269.823 289.62 266.961 290.656 264.466C291.691 261.972 294.554 260.789 297.05 261.825C299.372 262.786 300.533 265.328 299.854 267.687L312.387 279.627V304.532C320.456 304.582 328.524 304.712 336.589 304.917L318.102 288.635V257.034L303.51 243.404C302.427 243.772 301.218 243.78 300.076 243.308C297.581 242.273 296.397 239.411 297.433 236.916C298.468 234.42 301.33 233.237 303.825 234.272C306.132 235.229 307.293 237.74 306.644 240.086L322.667 255.054V286.573L343.705 305.103C347.954 305.234 352.203 305.395 356.45 305.57L352.811 302.561C352.815 302.601 352.817 302.64 352.82 302.679C352.824 302.731 352.827 302.783 352.833 302.836C347.341 299.723 341.598 297.095 335.638 295.043C335.673 294.632 335.71 294.223 335.747 293.813C335.789 293.349 335.832 292.885 335.872 292.42C334.067 291.124 333.314 288.722 334.202 286.581C334.696 285.391 335.613 284.511 336.7 284.017C338.039 271.813 339.929 259.679 342.282 247.641C342.472 246.589 342.683 245.544 342.899 244.498L304.009 210.241H282.621Z" fill="#FCF7FF"/>
<path d="M310.399 46.2074C310.853 45.9289 311.258 45.5735 311.604 45.1571C314.966 44.3974 318.309 43.5485 321.638 42.6469V166.093L359.635 199.775C358.161 202.666 356.731 205.583 355.357 208.526L310.399 169.855V46.2074Z" fill="#FCF7FF"/>
<path d="M356.841 232.087L405.077 274.788C404.628 269.096 404.846 263.351 405.464 257.644L361.696 219.998C359.963 223.979 358.343 228.012 356.841 232.087Z" fill="#FCF7FF"/>
<path d="M351.448 282.88C351.096 277.172 350.743 271.465 350.311 265.764C350.269 265.051 350.22 264.335 350.171 263.618L350.171 263.609C349.89 259.505 349.606 255.346 350.685 251.356L394.87 290.275V307.755C389.878 307.397 384.886 307.068 379.89 306.767L351.449 282.898L351.448 282.88Z" fill="#FCF7FF"/>
<path d="M343.655 162.066V36.199C345.463 35.6583 347.273 35.1244 349.086 34.5972V77.4157L393.018 119.734V148.293C386.076 156.384 379.89 165.098 374.211 174.134L366.015 166.575V125.344C366.821 124.867 367.501 124.154 367.935 123.243C369.098 120.806 368.062 117.887 365.624 116.724C363.186 115.561 360.266 116.597 359.103 119.035C357.939 121.472 358.973 124.391 361.414 125.553L361.42 125.556C361.424 125.557 361.428 125.559 361.432 125.56C361.438 125.562 361.444 125.564 361.449 125.567V168.575L371.758 178.08C370.498 180.151 369.258 182.231 368.043 184.327L343.655 162.066Z" fill="#FCF7FF"/>
<path d="M219.79 307.371C220.143 307.347 220.496 307.326 220.849 307.304L220.854 307.304C221.155 307.286 221.456 307.268 221.758 307.248L219.709 305.265L219.79 307.371Z" fill="#FCF7FF"/>
<path d="M172.863 311.48L172.702 311.319V293.305C179.095 297.385 184.427 303.209 188.034 309.889C182.972 310.36 177.914 310.904 172.863 311.48Z" fill="#FCF7FF"/>
<path d="M213.614 276.576C214.912 279.421 216.066 282.335 216.983 285.362C218.386 289.645 219.008 294.089 219.349 298.566L227.921 306.863C231.188 306.661 234.454 306.472 237.72 306.298L221.39 290.201V232.651C218.799 232.695 216.202 232.625 213.614 232.382V276.576Z" fill="#FCF7FF"/>
<path d="M298.285 196.311V47.6201C300.757 47.2727 303.214 46.8698 305.657 46.4035C305.673 46.4112 305.688 46.4197 305.702 46.4285L305.716 46.4365L305.738 46.45C305.769 46.4697 305.801 46.4893 305.836 46.5049V171.949L353.393 212.854C351.659 216.776 350.038 220.746 348.574 224.769L316.429 196.311H298.285Z" fill="#FCF7FF"/>
<path d="M435.061 311.297L435.084 311.3L435.088 311.3C436.655 311.46 438.222 311.62 439.787 311.79V307.119C438.839 302.592 437.477 298.065 433.629 295.24C433.406 295.077 433.177 294.928 432.953 294.771V311.081L435.061 311.297Z" fill="#FCF7FF"/>
<path d="M428.387 310.61C423.975 310.173 419.561 309.762 415.144 309.372V287.477C419.712 288.59 424.218 289.967 428.387 292.058V310.61Z" fill="#FCF7FF"/>
<path d="M225.955 232.436V288.292L243.901 305.979C248.66 305.749 253.42 305.543 258.183 305.366L234.621 281.374V245.472C232.332 244.339 231.271 241.628 232.263 239.235C233.299 236.741 236.162 235.557 238.658 236.593C241.153 237.627 242.338 240.488 241.302 242.984C240.868 244.03 240.101 244.829 239.186 245.347V279.506L264.369 305.153C271.021 304.939 277.676 304.782 284.329 304.673L255.611 273.219V238.662L246.345 228.232C239.704 230.419 232.859 231.896 225.955 232.436Z" fill="#FCF7FF"/>
<path d="M168.137 312.02C165.373 312.348 162.613 312.689 159.851 313.036V287.983C162.728 288.587 165.499 289.541 168.137 290.783V312.02Z" fill="#FCF7FF"/>
<path d="M376.358 191.915L413.392 225.715C414.252 223.445 415.142 221.185 416.05 218.932L380.221 185.885C378.901 187.874 377.613 189.884 376.358 191.915Z" fill="#FCF7FF"/>
<path d="M409.294 237.696L370.001 202.866C371.272 200.514 372.587 198.189 373.94 195.888L411.695 230.345C410.835 232.775 410.03 235.225 409.294 237.696Z" fill="#FCF7FF"/>
<path d="M363.624 215.635L406.163 252.224C406.572 249.465 407.052 246.724 407.578 244.006L407.584 243.984C407.592 243.948 407.601 243.912 407.61 243.875L407.636 243.77C407.656 243.692 407.676 243.614 407.696 243.535C407.729 243.409 407.763 243.283 407.796 243.157L407.797 243.154C407.846 242.969 407.895 242.784 407.942 242.598L367.831 207.042C366.373 209.878 364.959 212.737 363.624 215.635Z" fill="#FCF7FF"/>
<path d="M200.505 253.388V240.886C202.244 237.716 203.692 234.401 204.777 230.941C206.195 231.273 207.621 231.552 209.047 231.787V267.725C207.384 264.791 205.631 261.899 203.879 259.008C202.747 257.138 201.614 255.269 200.505 253.388Z" fill="#FCF7FF"/>
<path d="M106.841 159.948C107.887 160.1 108.822 159.985 109.671 159.676L105.222 153.848C105.348 155.961 105.8 158.024 106.841 159.948Z" fill="#FCF7FF"/>
<path d="M421.976 180.905V142.535C426.444 140.766 431.231 139.663 435.943 138.755V145.815C434.265 152.082 433.288 158.507 432.31 164.934L432.31 164.937C431.462 170.51 430.614 176.085 429.308 181.561C427.665 188.839 425.239 195.854 422.559 202.782C421.698 203.259 420.97 203.988 420.516 204.942C419.957 206.113 419.917 207.388 420.282 208.533C419.601 210.217 418.913 211.9 418.226 213.582L418.207 213.629L417.886 214.416L382.81 182.065C386.03 177.43 389.438 172.927 393.018 168.564V176.49C392.218 176.968 391.543 177.675 391.112 178.579C389.949 181.019 390.983 183.937 393.424 185.1C395.862 186.262 398.782 185.228 399.946 182.79C401.108 180.351 400.073 177.433 397.635 176.27C397.626 176.266 397.616 176.263 397.607 176.26C397.599 176.258 397.591 176.255 397.584 176.253V163.192C399.417 161.105 401.292 159.057 403.209 157.045V157.564C402.52 158.036 401.931 158.671 401.545 159.48C400.383 161.918 401.418 164.837 403.856 165.999C406.295 167.163 409.215 166.128 410.378 163.689C411.541 161.251 410.508 158.332 408.067 157.171C407.971 157.125 407.871 157.103 407.775 157.066V152.417C408.066 152.13 408.356 151.842 408.646 151.554C409.24 150.963 409.833 150.373 410.441 149.797C412.539 147.717 414.894 146.049 417.412 144.671V181.269C416.664 181.745 416.03 182.418 415.622 183.275C414.459 185.714 415.492 188.632 417.932 189.794C420.371 190.957 423.292 189.923 424.454 187.484C425.616 185.046 424.582 182.127 422.144 180.965C422.088 180.94 422.032 180.93 421.976 180.905Z" fill="#FCF7FF"/>
<path d="M227.601 626.732C266.826 626.732 302.177 610.152 327.024 583.62L294.344 553.343C277.738 571 254.158 582.027 228.001 582.027C177.72 582.027 136.96 541.282 136.96 491.021C136.96 440.76 177.72 400.015 228.001 400.015C254.157 400.015 277.736 411.041 294.342 428.697L326.248 396.803C301.445 370.751 266.42 354.513 227.601 354.513C152.402 354.513 91.4398 415.451 91.4398 490.622C91.4398 565.793 152.402 626.732 227.601 626.732Z" fill="#FCF7FF"/>
<path d="M571 405.204V354.911H367.357V627.131H571V576.838H418.467V515.369H566.208V467.471H418.467L417.669 405.204H571Z" fill="#FCF7FF"/>
<path d="M0 354.913H51.9091V627.132H0.0335297L0 354.913Z" fill="#FCF7FF"/>
<path fill-rule="evenodd" clip-rule="evenodd" d="M64.978 677C57.7041 677 54.3342 671.769 54.3342 666.329C54.3342 660.892 57.8231 655.423 64.978 655.423C72.1045 655.423 75.6501 660.892 75.5907 666.301C75.5339 671.65 72.2506 677 64.978 677ZM64.978 658.972C60.099 658.972 58.0881 662.901 58.176 666.389C58.2666 669.788 60.099 673.423 64.978 673.423C69.8557 673.423 71.6893 669.759 71.7488 666.36C71.8083 662.871 69.8557 658.972 64.978 658.972Z" fill="#FCF7FF"/>
<path d="M26.3947 668.665V655.808H30.2988V676.527H27.8727V676.555L16.9923 662.577V676.527H13.091V655.838H16.2554L26.3947 668.665Z" fill="#FCF7FF"/>
<path d="M9.1288 676.527H5.25595V655.838H9.1288V676.527Z" fill="#FCF7FF"/>
<path d="M47.4754 655.808V668.665L37.3346 655.838H34.1703V676.527H38.073V662.577L48.9534 676.555V676.527H51.3794V655.808H47.4754Z" fill="#FCF7FF"/>
<path d="M92.9757 655.838L86.7078 671.946L80.4698 655.838H76.0938L84.697 676.616H88.7484L97.3516 655.838H92.9757Z" fill="#FCF7FF"/>
<path fill-rule="evenodd" clip-rule="evenodd" d="M97.6152 676.527L106.901 655.838H111.158L120.442 676.527H116.185L114.44 672.626H103.619L101.844 676.527H97.6152ZM112.873 668.99L109.028 660.183L105.185 668.99H112.873Z" fill="#FCF7FF"/>
<path d="M117.603 655.838V659.384H124.166V676.527H128.069V659.384H134.634V655.838H117.603Z" fill="#FCF7FF"/>
<path d="M140.899 676.527H137.026V655.838H140.899V676.527Z" fill="#FCF7FF"/>
<path fill-rule="evenodd" clip-rule="evenodd" d="M144.269 666.329C144.269 671.769 147.639 677 154.914 677C162.188 677 165.468 671.65 165.528 666.301C165.587 660.892 162.039 655.423 154.914 655.423C147.758 655.423 144.269 660.892 144.269 666.329ZM148.113 666.389C148.025 662.901 150.035 658.972 154.914 658.972C159.792 658.972 161.743 662.871 161.684 666.36C161.624 669.759 159.792 673.423 154.914 673.423C150.035 673.423 148.203 669.788 148.113 666.389Z" fill="#FCF7FF"/>
<path d="M181.995 668.665V655.808H185.899V676.527H183.474V676.555L172.594 662.577V676.527H168.691V655.838H171.854L181.995 668.665Z" fill="#FCF7FF"/>
<path d="M194.856 666.329C194.885 671.709 198.137 677 205.825 677C208.81 677 211.56 676.024 213.688 673.926L211.028 671.236C209.668 672.596 207.629 673.335 205.825 673.335C200.709 673.335 198.728 669.759 198.699 666.329C198.67 662.871 200.828 659.147 205.825 659.147C207.629 659.147 209.461 659.768 210.82 661.099L213.423 658.586C211.295 656.488 208.635 655.423 205.825 655.423C198.344 655.423 194.825 660.922 194.856 666.329Z" fill="#FCF7FF"/>
<path fill-rule="evenodd" clip-rule="evenodd" d="M225.603 677C218.329 677 214.959 671.769 214.959 666.329C214.959 660.892 218.448 655.423 225.603 655.423C232.728 655.423 236.275 660.892 236.216 666.301C236.159 671.65 232.876 677 225.603 677ZM225.603 658.972C220.724 658.972 218.713 662.901 218.802 666.389C218.89 669.788 220.724 673.423 225.603 673.423C230.482 673.423 232.314 669.759 232.374 666.36C232.432 662.871 230.482 658.972 225.603 658.972Z" fill="#FCF7FF"/>
<path d="M252.684 655.808V668.665L242.543 655.838H239.379V676.527H243.283V662.577L254.162 676.555V676.527H256.588V655.808H252.684Z" fill="#FCF7FF"/>
<path d="M270.542 677C262.854 677 259.602 671.709 259.572 666.329C259.543 660.922 263.061 655.423 270.542 655.423C273.351 655.423 276.012 656.488 278.14 658.586L275.537 661.099C274.178 659.768 272.346 659.147 270.542 659.147C265.544 659.147 263.387 662.871 263.415 666.329C263.445 669.759 265.426 673.335 270.542 673.335C272.346 673.335 274.384 672.596 275.744 671.236L278.406 673.926C276.277 676.024 273.528 677 270.542 677Z" fill="#FCF7FF"/>
<path d="M280.533 655.838V676.527H296.026V672.685H284.407V668.016H295.613V664.379H284.407V659.622H296.026V655.838H280.533Z" fill="#FCF7FF"/>
<path fill-rule="evenodd" clip-rule="evenodd" d="M299.04 676.527V655.838C300.667 655.838 302.294 655.831 303.921 655.823H303.923C305.548 655.816 307.174 655.808 308.798 655.808C318.909 655.808 318.937 670.439 308.798 670.439H302.944V676.527H299.04ZM308.798 659.532H302.944V666.862H308.798C313.795 666.862 313.763 659.532 308.798 659.532Z" fill="#FCF7FF"/>
<path d="M317.815 655.838V659.384H324.378V676.527H328.282V659.384H334.844V655.838H317.815Z" fill="#FCF7FF"/>
<path d="M341.113 676.527H337.239V655.838H341.113V676.527Z" fill="#FCF7FF"/>
<path fill-rule="evenodd" clip-rule="evenodd" d="M344.482 666.329C344.482 671.769 347.853 677 355.126 677C362.398 677 365.68 671.65 365.74 666.301C365.799 660.892 362.251 655.423 355.126 655.423C347.971 655.423 344.482 660.892 344.482 666.329ZM348.325 666.389C348.237 662.901 350.247 658.972 355.126 658.972C360.005 658.972 361.955 662.871 361.898 666.36C361.837 669.759 360.005 673.423 355.126 673.423C350.247 673.423 348.413 669.788 348.325 666.389Z" fill="#FCF7FF"/>
<path d="M382.207 668.665V655.808H386.109V676.527H383.685V676.555L372.804 662.577V676.527H368.903V655.838H372.066L382.207 668.665Z" fill="#FCF7FF"/>
<path d="M395.599 655.838V676.527H411.092V672.685H399.472V668.016H410.677V664.379H399.472V659.622H411.092V655.838H395.599Z" fill="#FCF7FF"/>
<path d="M423.627 671.946L429.895 655.838H434.271L425.666 676.616H421.617L413.013 655.838H417.387L423.627 671.946Z" fill="#FCF7FF"/>
<path fill-rule="evenodd" clip-rule="evenodd" d="M435.749 666.329C435.749 671.769 439.118 677 446.391 677C453.665 677 456.947 671.65 457.006 666.301C457.065 660.892 453.518 655.423 446.391 655.423C439.238 655.423 435.749 660.892 435.749 666.329ZM439.592 666.389C439.504 662.901 441.513 658.972 446.391 658.972C451.27 658.972 453.221 662.871 453.163 666.36C453.104 669.759 451.27 673.423 446.391 673.423C441.513 673.423 439.68 669.788 439.592 666.389Z" fill="#FCF7FF"/>
<path d="M459.872 676.527V655.838H463.776V672.92H474.42V676.527H459.872Z" fill="#FCF7FF"/>
<path d="M490.236 655.868V667.72C490.236 671.265 488.404 673.423 485.181 673.423C481.959 673.423 479.829 671.444 479.829 667.72V655.868H475.956V667.72C475.956 673.955 480.184 676.969 485.15 676.969C490.356 676.969 494.109 673.837 494.109 667.72V655.868H490.236Z" fill="#FCF7FF"/>
<path d="M496.712 659.384V655.838H513.741V659.384H507.177V676.527H503.275V659.384H496.712Z" fill="#FCF7FF"/>
<path d="M516.135 676.527H520.009V655.838H516.135V676.527Z" fill="#FCF7FF"/>
<path fill-rule="evenodd" clip-rule="evenodd" d="M534.021 677C526.748 677 523.378 671.769 523.378 666.329C523.378 660.892 526.868 655.423 534.021 655.423C541.147 655.423 544.695 660.892 544.636 666.301C544.577 671.65 541.295 677 534.021 677ZM534.021 658.972C529.144 658.972 527.133 662.901 527.222 666.389C527.31 669.788 529.144 673.423 534.021 673.423C538.901 673.423 540.733 669.759 540.792 666.36C540.852 662.871 538.901 658.972 534.021 658.972Z" fill="#FCF7FF"/>
<path d="M561.104 655.808V668.665L550.963 655.838H547.799V676.527H551.7V662.577L562.582 676.555V676.527H565.006V655.808H561.104Z" fill="#FCF7FF"/>
</svg>
