<svg width="1000" height="1000" viewBox="0 0 1000 1000" fill="none" xmlns="http://www.w3.org/2000/svg">
<g clip-path="url(#clip0_4509_8096)">
<rect width="1000" height="1000" fill="#0A364A"/>
<path fill-rule="evenodd" clip-rule="evenodd" d="M622.72 273.202V308.614L701.367 392.097C711.399 391.118 721.458 391.031 730.654 396.004C729.609 397.135 728.693 398.695 727.755 400.291C725.317 404.442 722.731 408.844 717.354 406.631C716.451 406.281 715.563 405.893 714.677 405.505L714.653 405.495C714.467 405.414 714.281 405.332 714.095 405.251L713.777 405.114L713.526 405.006L716.491 408.149C718.868 407.473 721.479 407.587 723.885 408.734C729.14 411.243 731.368 417.532 728.863 422.785C726.358 428.04 720.066 430.269 714.811 427.763C709.964 425.453 707.744 419.927 709.39 414.957L612.886 312.515V279.404C607.194 283.648 602.023 288.563 597.444 293.975V321.123L674.105 395.509C676.706 394.518 679.68 394.533 682.386 395.823C687.644 398.328 689.87 404.618 687.365 409.873C684.862 415.129 678.57 417.357 673.315 414.849C668.748 412.673 666.476 407.633 667.606 402.905L587.61 325.283V308.032C585.251 312.203 583.203 316.558 581.545 321.074C577.782 320.85 574.024 320.742 570.269 320.684V331.305L680.368 443.398C682.957 442.425 685.917 442.452 688.608 443.733C693.863 446.242 696.089 452.531 693.584 457.786C691.082 463.039 684.789 465.268 679.535 462.762C674.958 460.58 672.68 455.52 673.831 450.78L560.435 335.325V320.704C537.667 321.179 515.042 324.374 492.665 328.791V410.538L584.986 506.107V545.412C589.964 543.886 595 542.566 600.043 541.476C605.036 540.413 610.049 539.519 615.071 538.752V506.445L525.919 417.873V353.62C525.826 353.584 525.732 353.555 525.639 353.525C525.568 353.503 525.497 353.481 525.426 353.456C525.355 353.431 525.285 353.403 525.214 353.369C519.962 350.864 517.734 344.574 520.239 339.319C522.744 334.064 529.033 331.835 534.285 334.34C539.54 336.846 541.772 343.135 539.266 348.391C538.451 350.104 537.207 351.455 535.75 352.463V413.78L624.905 502.355V537.43C640.911 535.548 657.041 534.91 673.19 534.817V529.197C668.969 526.319 667.332 520.743 669.598 515.989C672.106 510.734 678.396 508.505 683.648 511.01C688.903 513.516 691.131 519.805 688.623 525.061C687.44 527.546 685.393 529.326 683.024 530.275V534.82C691.735 534.87 700.447 535.032 709.144 535.193C715.536 535.312 721.919 535.43 728.289 535.504C731.257 535.44 734.246 535.344 737.243 535.23V523.24L703.272 496.089C700.537 497.324 697.321 497.438 694.399 496.045C689.144 493.543 686.916 487.253 689.421 481.998C691.926 476.742 698.218 474.514 703.471 477.019C707.825 479.096 710.051 483.769 709.279 488.302L747.078 518.509V534.738C756.332 534.155 765.619 533.182 774.721 531.499L764.544 525.113V492.803L727.339 460.912C725.798 460.921 724.24 460.63 722.757 459.922C717.502 457.419 715.274 451.127 717.776 445.872C720.284 440.616 726.573 438.388 731.825 440.893C737.08 443.398 739.309 449.691 736.806 454.946C736.675 455.214 736.5 455.435 736.352 455.689L774.375 488.279V519.674L788.249 528.379C799.089 525.361 809.508 521.067 819.112 514.873C827.103 509.618 834.134 502.032 838.938 493.353L803.583 462.054C800.612 463.986 796.752 464.399 793.315 462.762C788.06 460.257 785.832 453.964 788.34 448.712C790.842 443.46 797.134 441.231 802.389 443.733C806.141 445.525 808.308 449.248 808.352 453.143L843.112 483.918C844.347 480.163 845.134 476.3 845.396 472.408L784.331 418.695C781.529 420.084 778.156 420.265 775.112 418.814C770.562 416.644 768.296 411.636 769.394 406.919C763.014 402.404 756.635 397.883 750.314 393.286L750.273 393.167C747.548 385.224 744.691 376.901 739.999 369.881V373.98C744.406 376.803 746.16 382.495 743.847 387.343C741.342 392.598 735.053 394.827 729.798 392.319C724.543 389.816 722.317 383.527 724.822 378.268C725.961 375.877 727.907 374.149 730.165 373.176V359.624C720.044 351.779 709.147 345.047 698.254 338.318C696.951 337.514 695.648 336.709 694.347 335.902C694.798 338.066 694.612 340.379 693.584 342.529C691.082 347.785 684.789 350.013 679.535 347.511C674.28 345.003 672.054 338.713 674.559 333.458C675.564 331.349 677.192 329.755 679.109 328.733V326.09C678.501 325.678 677.889 325.272 677.279 324.862C676.828 324.559 676.379 324.254 675.934 323.943C671.804 317.813 668.608 311.007 665.408 304.195C660.107 292.908 654.798 281.604 645.223 273.333C642.129 270.953 638.654 270 635.103 270C630.911 270 626.612 271.328 622.72 273.202ZM581.379 411.301C576.127 408.795 573.896 402.506 576.404 397.248C578.906 391.995 585.198 389.77 590.453 392.272C595.705 394.78 597.937 401.07 595.428 406.322C595.347 406.492 595.247 406.645 595.147 406.797L595.117 406.843C595.097 406.873 595.078 406.903 595.058 406.933C595.031 406.977 595.003 407.02 594.977 407.065L633 439.658V471.053L650.655 482.132C653.641 480.148 657.542 479.702 661.014 481.357C666.266 483.862 668.495 490.152 665.992 495.407C663.484 500.66 657.195 502.888 651.943 500.383C648.13 498.568 645.942 494.755 645.965 490.796L623.166 476.489V444.179L585.964 412.291H585.903C584.382 412.291 582.844 411.997 581.379 411.301Z" fill="#FCF7FF" fill-opacity="0.03"/>
<path d="M437.805 341.758C445.766 339.535 453.75 337.42 461.793 335.541C468.775 333.895 475.79 332.304 482.831 330.81V414.514L575.154 510.081V548.777C567.88 551.585 560.909 555.075 554.393 559.27V512.458L465.239 423.883V362.566C466.695 361.558 467.936 360.207 468.752 358.497C471.26 353.241 469.029 346.949 463.777 344.444C458.522 341.941 452.233 344.167 449.727 349.422C447.222 354.675 449.451 360.967 454.706 363.472C454.933 363.583 455.175 363.636 455.408 363.723V427.976L544.559 516.548V566.515C542.666 568.126 540.801 569.784 539.039 571.575C537.38 573.254 535.782 574.984 534.183 576.715C533.604 577.343 533.024 577.971 532.441 578.596V523.858L437.805 432.655V341.758Z" fill="#FCF7FF" fill-opacity="0.03"/>
<path d="M378.677 359.176V623.518L455.361 691.526C457.339 687.759 459.337 684.01 461.365 680.284C461.841 679.43 462.33 678.58 462.818 677.732L462.828 677.715C463.157 677.142 463.487 676.569 463.812 675.996L406.438 623.608V350.969C397.195 353.754 387.952 356.531 378.677 359.176Z" fill="#FCF7FF" fill-opacity="0.03"/>
<path d="M284.699 375.251C291.644 375.239 298.6 374.925 305.585 374.17C306.192 374.112 306.797 374.041 307.402 373.97C307.837 373.918 308.272 373.867 308.708 373.821V702.905H353.9L423.386 764.449C421.046 771.554 418.955 778.741 417.137 786.006L335.979 714.482L334.584 713.259H285.197C286.651 677.438 287.944 641.609 289.22 605.783C287.761 611.498 286.246 617.205 284.699 622.909V375.251Z" fill="#FCF7FF" fill-opacity="0.03"/>
<path d="M434.976 908.441L460.168 929.279C461.299 929.333 462.431 929.387 463.563 929.44L465.138 929.514L465.153 929.515C468.302 929.663 471.451 929.81 474.599 929.969C475.691 930.024 476.784 930.08 477.876 930.139L433.936 893.249C434.263 898.312 434.612 903.378 434.976 908.441Z" fill="#FCF7FF" fill-opacity="0.03"/>
<path d="M-264.832 1004.4C466.812 942.269 769.079 987.622 769.079 987.622C634.354 958.976 487.975 948.932 348.817 948.935C21.9149 948.943 -264.832 1004.4 -264.832 1004.4Z" fill="#FCF7FF" fill-opacity="0.03"/>
<path d="M216.644 758.302L236.452 780.608V854.999L255.147 875.487C247.856 844.203 249.111 812.094 253.947 780.486L229.501 752.962C225.278 754.885 220.978 756.635 216.644 758.302Z" fill="#FCF7FF" fill-opacity="0.03"/>
<path d="M256.027 768.02L238.715 748.525C247.11 744.278 255.238 739.585 263.004 734.542C260.455 745.571 258.063 756.755 256.027 768.02Z" fill="#FCF7FF" fill-opacity="0.03"/>
<path d="M434.408 801.225L536.426 891.134V933.929C544.431 934.541 552.433 935.205 560.435 935.884V887.295C557.726 886.706 555.025 886.135 552.346 885.561C551.629 882.738 551.044 879.898 550.519 877.052L441.076 780.116C438.673 787.096 436.491 794.149 434.408 801.225Z" fill="#FCF7FF" fill-opacity="0.03"/>
<path d="M73.6694 442.606C74.7093 440.089 74.6774 437.418 73.8296 435.044L143.511 359.543C166.535 359.903 189.391 363.65 212.247 367.397C220.971 368.827 229.696 370.257 238.43 371.499V687.829C236.344 688.936 234.591 690.704 233.615 693.058C231.383 698.436 233.935 704.603 239.312 706.835C244.687 709.063 250.853 706.511 253.082 701.133C255.182 696.073 253.009 690.352 248.264 687.835V372.806C257.116 373.89 265.981 374.712 274.865 375.064V656.271C269.561 672.678 263.551 688.855 256.449 704.6C255.972 705.571 255.503 706.563 255.031 707.563L255.025 707.575C251.893 714.205 248.599 721.18 241.558 724.378C235.989 727.393 230.227 730.032 224.328 732.331L211.333 717.698V565.371C213.314 564.252 214.969 562.53 215.907 560.27C218.135 554.892 215.589 548.725 210.212 546.496C204.834 544.265 198.668 546.814 196.439 552.191C194.304 557.339 196.582 563.177 201.499 565.624V721.433L214.293 735.841C209.615 737.315 204.87 738.582 200.072 739.637L188.376 726.464V383.177C190.494 382.073 192.271 380.29 193.258 377.913C195.49 372.535 192.941 366.366 187.567 364.137C182.186 361.905 176.019 364.457 173.791 369.835C171.7 374.872 173.844 380.561 178.542 383.099V730.196L188.772 741.723C180.15 743.019 171.437 743.669 162.733 743.686V489.136C164.735 488.02 166.412 486.286 167.356 484.006C169.59 478.631 167.039 472.463 161.664 470.232C156.287 468.003 150.12 470.553 147.889 475.93C145.763 481.06 148.02 486.869 152.899 489.334V743.442C148.171 743.191 143.461 742.766 138.792 742.14C137.999 742.048 137.206 741.921 136.417 741.795L136.15 741.752V440.258C137.965 439.137 139.47 437.476 140.35 435.355C142.579 429.978 140.03 423.811 134.655 421.582C129.278 419.35 123.111 421.899 120.88 427.277C118.689 432.562 121.13 438.586 126.313 440.911V739.375C119.61 737.175 113.292 733.878 107.911 729.493V516.444L71.9215 479.044C72.7343 474.302 70.2176 469.463 65.586 467.54C60.2116 465.312 54.0447 467.861 51.8163 473.238C49.585 478.613 52.1339 484.78 57.5112 487.012C60.2902 488.165 63.2731 488.02 65.8218 486.887L98.0801 520.409V718.56C95.942 715.242 94.2174 711.601 93.0289 707.624C92.6823 736.945 83.2967 765.838 67.7037 790.58C62.2302 800.234 55.2392 809.183 48.0208 818.031V542.639L28.0846 515.815C28.6351 515.101 29.1331 514.332 29.4942 513.458C31.7255 508.083 29.1739 501.916 23.7964 499.684C18.4192 497.456 12.2553 500.005 10.0241 505.382C7.79569 510.76 10.3415 516.927 15.7188 519.156C16.7442 519.581 17.7959 519.779 18.8444 519.873L38.1866 545.896V830.045C31.6119 838.184 25.3374 846.466 20.3388 855.349V546.199L-4.68061 520.86C-3.71945 516.03 -6.25351 511.034 -10.9784 509.073C-16.3528 506.845 -22.5226 509.394 -24.7539 514.772C-26.9823 520.149 -24.4336 526.317 -19.0561 528.545C-16.347 529.67 -13.4399 529.573 -10.9378 528.522L10.5047 550.237V882.217C10.1319 884.475 9.84639 886.773 9.68911 889.133C9.78499 889.138 9.87979 889.147 9.97423 889.157C10.0306 889.163 10.0867 889.17 10.1427 889.177C10.2635 889.191 10.3838 889.205 10.5047 889.214V945.887C5.41563 946.546 0.326706 947.201 -4.75933 947.874V568.185L-27.0144 548.014C-26.3443 543.361 -28.832 538.671 -33.3734 536.784C-38.7478 534.555 -44.9175 537.104 -47.1458 542.482C-49.3773 547.86 -46.8255 554.027 -41.4482 556.258C-38.5644 557.453 -35.4707 557.237 -32.8635 555.984L-14.5907 572.546V949.194C-18.6502 949.738 -22.7093 950.283 -26.7683 950.829L-43.6882 953.106V904.89C-40.3878 903.122 -38.1157 899.684 -38.1157 895.682C-38.1157 889.887 -42.8113 885.191 -48.6023 885.191C-54.3963 885.191 -59.0891 889.887 -59.0891 895.682C-59.0891 899.684 -56.8228 903.122 -53.5224 904.89V954.414C-64.3382 955.856 -75.154 957.281 -85.9786 958.63C-88.4314 951.437 -89.7246 944.055 -90.4908 936.591L-90.1676 936.286C-89.3839 936.469 -88.5799 936.591 -87.7438 936.591C-81.9034 936.591 -77.1669 931.852 -77.1669 926.014C-77.1669 920.17 -81.9034 915.433 -87.7438 915.433C-89.1508 915.433 -90.4879 915.721 -91.7143 916.219C-91.9153 911.022 -92.122 905.834 -92.5328 900.686C-93.0805 889.669 -93.5523 878.619 -93.9602 867.561C-90.7122 865.6 -88.5159 862.072 -88.5159 857.997C-88.5159 853.673 -90.9919 849.962 -94.5806 848.098C-94.7758 840.841 -94.9331 833.587 -95.0322 826.328L-24.448 760.886V594.13C-22.5634 593.011 -20.9932 591.324 -20.0902 589.142C-17.8561 583.767 -20.4078 577.6 -25.7851 575.369C-31.1595 573.137 -37.3262 575.689 -39.5575 581.067C-41.722 586.29 -39.3536 592.233 -34.2822 594.613V756.595L-95.137 813.014C-95.3379 769.649 -93.4971 726.274 -87.9042 683.407C-87.5253 682.842 -87.1904 682.233 -86.9224 681.58C-85.9234 679.177 -85.9262 676.631 -86.6631 674.335C-85.7805 668.162 -84.8076 662.001 -83.756 655.854L-80.8402 659.766C-80.8825 659.839 -80.9252 659.912 -80.968 659.984L-80.9697 659.987C-81.1584 660.307 -81.3485 660.629 -81.4928 660.981C-83.724 666.356 -81.1751 672.523 -75.8007 674.752C-70.4235 676.986 -64.2567 674.434 -62.0253 669.057C-59.7969 663.682 -62.3458 657.517 -67.7231 655.286C-69.2787 654.639 -70.8953 654.435 -72.4713 654.543L-81.3382 642.634C-80.3187 637.338 -79.2469 632.053 -78.0904 626.778L-61.8068 648.114C-63.7614 653.398 -61.2387 659.321 -55.9897 661.5C-50.6151 663.731 -44.4484 661.179 -42.2171 655.801C-39.9887 650.424 -42.5376 644.26 -47.912 642.025C-50.0676 641.134 -52.3397 641.037 -54.44 641.553L-75.2473 614.295C-73.6043 607.492 -71.8595 600.708 -69.9632 593.952C-71.6423 595.9 -73.2338 598.327 -74.8755 600.83C-76.4912 603.294 -78.1562 605.834 -80.0013 608.063L-96.4186 586.555C-96.2794 585.527 -96.1355 584.503 -95.9925 583.486C-95.8031 582.14 -95.6155 580.805 -95.4428 579.488C-85.865 528.796 -63.141 480.434 -29.5167 441.223C-7.45972 415.339 20.199 393.863 51.0561 379.449L-45.7739 483.373C-45.836 483.345 -45.8923 483.309 -45.9494 483.275C-45.9915 483.25 -46.0341 483.226 -46.0798 483.207C-51.4571 480.976 -57.6238 483.528 -59.8552 488.905C-62.0865 494.28 -59.5347 500.445 -54.1573 502.676C-48.78 504.908 -42.6132 502.359 -40.3877 496.984C-39.6129 495.122 -39.447 493.173 -39.7382 491.32L72.6353 370.715C86.5971 365.94 101.051 362.584 115.835 360.944C120.542 360.356 125.241 359.983 129.933 359.755L66.5705 428.407C61.566 427.105 56.2382 429.611 54.202 434.528C51.9707 439.903 54.5196 446.07 59.8969 448.299C65.2713 450.53 71.438 447.981 73.6694 442.606Z" fill="#FCF7FF" fill-opacity="0.03"/>
<path d="M284.798 723.09C283.782 747.587 282.628 772.081 281.381 796.569L295.428 812.385V866.025L314.543 881.617C317.182 880.297 320.345 880.041 323.287 881.264C328.665 883.493 331.214 889.66 328.982 895.035C326.754 900.413 320.587 902.962 315.21 900.733C310.718 898.869 308.245 894.257 308.839 889.657L285.594 870.698V816.12L280.647 810.55C280.564 812.116 280.483 813.683 280.402 815.249L280.182 819.568C279.922 824.684 279.662 829.8 279.369 834.916C279.122 838.453 278.896 841.995 278.67 845.54C277.603 862.244 276.533 878.994 273.353 895.434L301.612 926.401C314.103 926.258 326.594 926.226 339.084 926.258V876.836L315.09 853.968C312.783 854.722 310.22 854.728 307.802 853.726C302.428 851.494 299.876 845.327 302.107 839.95C304.336 834.575 310.502 832.026 315.88 834.257C320.881 836.328 323.383 841.808 321.921 846.892L348.919 872.624V926.296C366.3 926.404 383.679 926.684 401.052 927.126L361.229 892.037V823.933L329.795 794.559C327.462 795.352 324.857 795.369 322.399 794.352C317.024 792.121 314.473 785.954 316.704 780.576C318.935 775.198 325.099 772.649 330.474 774.878C335.443 776.94 337.945 782.353 336.547 787.407L371.063 819.665V887.592L416.38 927.526C425.532 927.808 434.685 928.155 443.835 928.534L435.996 922.049C436.004 922.134 436.01 922.218 436.015 922.302C436.023 922.415 436.031 922.527 436.043 922.64C424.213 915.931 411.842 910.268 399.004 905.846C399.078 904.961 399.157 904.078 399.238 903.196C399.329 902.195 399.421 901.194 399.508 900.194C395.619 897.4 393.997 892.224 395.911 887.609C396.974 885.046 398.949 883.149 401.291 882.083C404.175 855.783 408.247 829.634 413.315 803.689C413.723 801.423 414.178 799.171 414.644 796.916L330.87 723.09H284.798Z" fill="#FCF7FF" fill-opacity="0.03"/>
<path d="M344.636 369.581C345.612 368.981 346.486 368.215 347.232 367.318C354.474 365.681 361.674 363.851 368.846 361.908V627.946L450.695 700.533C447.52 706.765 444.441 713.051 441.481 719.393L344.636 636.053V369.581Z" fill="#FCF7FF" fill-opacity="0.03"/>
<path d="M444.677 770.17L548.582 862.195C547.615 849.927 548.084 837.546 549.415 825.247L455.134 744.118C451.403 752.697 447.913 761.387 444.677 770.17Z" fill="#FCF7FF" fill-opacity="0.03"/>
<path d="M433.06 879.634C432.3 867.333 431.541 855.032 430.61 842.746C430.521 841.21 430.415 839.668 430.31 838.123L430.308 838.103C429.704 829.258 429.092 820.294 431.417 811.697L526.595 895.571V933.241C515.843 932.469 505.088 931.761 494.328 931.111L433.063 879.673L433.06 879.634Z" fill="#FCF7FF" fill-opacity="0.03"/>
<path d="M416.272 619.267V348.012C420.167 346.847 424.067 345.696 427.971 344.56V436.838L522.607 528.038V589.585C507.652 607.023 494.328 625.802 482.093 645.276L464.438 628.986V540.128C466.174 539.1 467.639 537.564 468.574 535.601C471.08 530.348 468.848 524.059 463.596 521.551C458.344 519.045 452.055 521.277 449.55 526.532C447.042 531.785 449.27 538.074 454.528 540.579L454.54 540.585C454.548 540.588 454.557 540.591 454.566 540.594C454.579 540.598 454.592 540.603 454.604 540.609V633.294L476.809 653.78C474.095 658.243 471.423 662.726 468.808 667.242L416.272 619.267Z" fill="#FCF7FF" fill-opacity="0.03"/>
<path d="M149.453 932.414C150.213 932.362 150.974 932.316 151.734 932.271L151.745 932.27C152.394 932.231 153.043 932.192 153.692 932.149L149.278 927.875L149.453 932.414Z" fill="#FCF7FF" fill-opacity="0.03"/>
<path d="M48.3675 941.27L48.021 940.923V902.1C61.7905 910.894 73.2762 923.444 81.048 937.841C70.1419 938.855 59.2474 940.029 48.3675 941.27Z" fill="#FCF7FF" fill-opacity="0.03"/>
<path d="M136.15 866.049C138.946 872.178 141.431 878.459 143.406 884.981C146.429 894.213 147.769 903.789 148.503 913.437L166.969 931.319C174.006 930.884 181.041 930.477 188.076 930.101L152.899 895.411V771.385C147.318 771.481 141.725 771.33 136.15 770.805V866.049Z" fill="#FCF7FF" fill-opacity="0.03"/>
<path d="M318.539 693.07V372.626C323.864 371.877 329.157 371.009 334.421 370.004C334.455 370.021 334.487 370.039 334.519 370.058L334.547 370.075L334.595 370.104C334.663 370.147 334.73 370.189 334.805 370.222V640.566L437.249 728.721C433.514 737.172 430.022 745.728 426.87 754.398L357.626 693.07H318.539Z" fill="#FCF7FF" fill-opacity="0.03"/>
<path d="M613.172 940.876L613.222 940.881L613.231 940.882C616.605 941.226 619.98 941.57 623.352 941.937V931.872C621.31 922.116 618.377 912.359 610.086 906.271C609.606 905.918 609.113 905.598 608.63 905.26V940.411L613.172 940.876Z" fill="#FCF7FF" fill-opacity="0.03"/>
<path d="M598.796 939.394C589.291 938.453 579.783 937.567 570.269 936.726V889.541C580.109 891.938 589.815 894.907 598.796 899.414V939.394Z" fill="#FCF7FF" fill-opacity="0.03"/>
<path d="M162.733 770.922V891.297L201.391 929.413C211.642 928.918 221.896 928.475 232.155 928.094L181.4 876.387V799.016C176.471 796.575 174.184 790.731 176.322 785.575C178.554 780.2 184.72 777.648 190.098 779.88C195.472 782.108 198.024 788.275 195.793 793.653C194.858 795.908 193.206 797.63 191.234 798.745V872.361L245.482 927.633C259.811 927.173 274.146 926.835 288.477 926.599L226.615 858.812V784.34L206.655 761.862C192.35 766.575 177.604 769.759 162.733 770.922Z" fill="#FCF7FF" fill-opacity="0.03"/>
<path d="M38.1866 942.432C32.2324 943.14 26.287 943.874 20.3386 944.623V890.63C26.5346 891.932 32.5032 893.989 38.1866 896.666V942.432Z" fill="#FCF7FF" fill-opacity="0.03"/>
<path d="M486.719 683.596L566.494 756.437C568.347 751.546 570.263 746.675 572.221 741.819L495.039 670.6C492.196 674.886 489.423 679.218 486.719 683.596Z" fill="#FCF7FF" fill-opacity="0.03"/>
<path d="M557.668 782.257L473.025 707.196C475.764 702.127 478.595 697.116 481.511 692.158L562.838 766.415C560.985 771.653 559.252 776.932 557.668 782.257Z" fill="#FCF7FF" fill-opacity="0.03"/>
<path d="M459.288 734.714L550.921 813.568C551.804 807.622 552.838 801.714 553.971 795.856L553.982 795.809C554.001 795.731 554.02 795.653 554.039 795.575L554.095 795.348C554.138 795.179 554.181 795.011 554.225 794.842C554.296 794.57 554.368 794.298 554.44 794.026L554.442 794.02C554.548 793.621 554.653 793.223 554.755 792.823L468.35 716.195C465.21 722.307 462.163 728.468 459.288 734.714Z" fill="#FCF7FF" fill-opacity="0.03"/>
<path d="M107.911 816.076V789.132C111.657 782.301 114.777 775.157 117.113 767.7C120.169 768.416 123.239 769.017 126.312 769.523V846.973C122.728 840.65 118.954 834.418 115.18 828.187C112.739 824.158 110.299 820.129 107.911 816.076Z" fill="#FCF7FF" fill-opacity="0.03"/>
<path d="M-93.8524 614.703C-91.5978 615.032 -89.5849 614.784 -87.7556 614.117L-97.3393 601.558C-97.0683 606.111 -96.0954 610.557 -93.8524 614.703Z" fill="#FCF7FF" fill-opacity="0.03"/>
<path d="M584.986 659.868V577.178C594.61 573.364 604.922 570.987 615.071 569.03V584.245C611.456 597.752 609.351 611.597 607.246 625.448L607.245 625.456C605.419 637.466 603.592 649.48 600.78 661.281C597.24 676.966 592.014 692.085 586.241 707.015C584.385 708.044 582.818 709.614 581.839 711.67C580.636 714.193 580.549 716.94 581.336 719.408C579.868 723.038 578.388 726.664 576.907 730.289L576.866 730.391L576.174 732.086L500.617 662.368C507.553 652.379 514.894 642.675 522.607 633.271V650.354C520.883 651.382 519.429 652.906 518.5 654.855C515.995 660.113 518.223 666.403 523.481 668.908C528.733 671.413 535.022 669.185 537.53 663.929C540.033 658.674 537.804 652.384 532.552 649.879C532.531 649.87 532.511 649.863 532.49 649.858C532.474 649.853 532.457 649.847 532.441 649.841V621.694C536.391 617.196 540.429 612.783 544.559 608.448V609.566C543.074 610.583 541.807 611.952 540.974 613.694C538.471 618.95 540.7 625.239 545.952 627.745C551.207 630.253 557.496 628.021 560.001 622.766C562.506 617.511 560.281 611.221 555.023 608.719C554.816 608.62 554.6 608.573 554.394 608.491V598.473C555.022 597.855 555.646 597.234 556.271 596.613C557.55 595.341 558.829 594.068 560.138 592.827C564.656 588.344 569.73 584.749 575.154 581.78V660.652C573.543 661.677 572.177 663.128 571.298 664.975C568.792 670.231 571.018 676.52 576.273 679.025C581.528 681.531 587.82 679.302 590.322 674.047C592.827 668.791 590.599 662.502 585.347 659.996C585.227 659.944 585.105 659.921 584.986 659.868Z" fill="#FCF7FF" fill-opacity="0.03"/>
<path d="M166.28 1620.67C250.775 1620.67 326.925 1584.94 380.447 1527.76L310.051 1462.51C274.28 1500.56 223.485 1524.32 167.14 1524.32C58.8303 1524.32 -28.9721 1436.52 -28.9721 1328.2C-28.9721 1219.88 58.8303 1132.07 167.14 1132.07C223.483 1132.07 274.276 1155.83 310.047 1193.88L378.777 1125.15C325.347 1069 249.9 1034.01 166.28 1034.01C4.2905 1034.01 -127.028 1165.34 -127.028 1327.34C-127.028 1489.34 4.2905 1620.67 166.28 1620.67Z" fill="#FCF7FF" fill-opacity="0.03"/>
<path d="M906 1143.25V1034.87H467.329V1621.53H906V1513.14H577.427V1380.67H895.678V1277.45H577.427L575.706 1143.25H906Z" fill="#FCF7FF" fill-opacity="0.03"/>
<path d="M-324 1034.87H-212.182V1621.53H-323.928L-324 1034.87Z" fill="#FCF7FF" fill-opacity="0.03"/>
<path fill-rule="evenodd" clip-rule="evenodd" d="M-184.03 1729C-199.699 1729 -206.958 1717.73 -206.958 1706C-206.958 1694.29 -199.442 1682.5 -184.03 1682.5C-168.679 1682.5 -161.041 1694.29 -161.169 1705.94C-161.291 1717.47 -168.364 1729 -184.03 1729ZM-184.03 1690.15C-194.54 1690.15 -198.872 1698.62 -198.682 1706.13C-198.487 1713.46 -194.54 1721.29 -184.03 1721.29C-173.523 1721.29 -169.573 1713.39 -169.445 1706.07C-169.317 1698.55 -173.523 1690.15 -184.03 1690.15Z" fill="#FCF7FF" fill-opacity="0.03"/>
<path d="M-267.143 1711.04V1683.33H-258.733V1727.98H-263.959V1728.04L-287.397 1697.92V1727.98H-295.8V1683.39H-288.984L-267.143 1711.04Z" fill="#FCF7FF" fill-opacity="0.03"/>
<path d="M-304.336 1727.98H-312.678V1683.39H-304.336V1727.98Z" fill="#FCF7FF" fill-opacity="0.03"/>
<path d="M-221.733 1683.33V1711.04L-243.577 1683.39H-250.393V1727.98H-241.986V1697.92L-218.549 1728.04V1727.98H-213.323V1683.33H-221.733Z" fill="#FCF7FF" fill-opacity="0.03"/>
<path d="M-123.72 1683.39L-137.221 1718.11L-150.659 1683.39H-160.085L-141.553 1728.17H-132.826L-114.293 1683.39H-123.72Z" fill="#FCF7FF" fill-opacity="0.03"/>
<path fill-rule="evenodd" clip-rule="evenodd" d="M-113.726 1727.98L-93.7224 1683.39H-84.5525L-64.5549 1727.98H-73.7246L-77.4826 1719.57H-100.792L-104.617 1727.98H-113.726ZM-80.8586 1711.74L-89.1403 1692.76L-97.419 1711.74H-80.8586Z" fill="#FCF7FF" fill-opacity="0.03"/>
<path d="M-70.669 1683.39V1691.04H-56.5323V1727.98H-48.1256V1691.04H-33.9829V1683.39H-70.669Z" fill="#FCF7FF" fill-opacity="0.03"/>
<path d="M-20.4875 1727.98H-28.8302V1683.39H-20.4875V1727.98Z" fill="#FCF7FF" fill-opacity="0.03"/>
<path fill-rule="evenodd" clip-rule="evenodd" d="M-13.2281 1706C-13.2281 1717.73 -5.96914 1729 9.70246 1729C25.3713 1729 32.4382 1717.47 32.5662 1705.94C32.6944 1694.29 25.051 1682.5 9.70246 1682.5C-5.71292 1682.5 -13.2281 1694.29 -13.2281 1706ZM-4.94676 1706.13C-5.13617 1698.62 -0.807451 1690.15 9.70246 1690.15C20.2097 1690.15 24.4131 1698.55 24.2851 1706.07C24.1569 1713.39 20.2097 1721.29 9.70246 1721.29C-0.807451 1721.29 -4.75445 1713.46 -4.94676 1706.13Z" fill="#FCF7FF" fill-opacity="0.03"/>
<path d="M68.0379 1711.04V1683.33H76.4477V1727.98H71.2246V1728.04L47.787 1697.92V1727.98H39.3801V1683.39H46.1933L68.0379 1711.04Z" fill="#FCF7FF" fill-opacity="0.03"/>
<path d="M95.7431 1706C95.8043 1717.6 102.81 1729 119.37 1729C125.802 1729 131.724 1726.9 136.309 1722.38L130.579 1716.58C127.649 1719.51 123.256 1721.1 119.37 1721.1C108.35 1721.1 104.083 1713.39 104.022 1706C103.958 1698.55 108.607 1690.53 119.37 1690.53C123.256 1690.53 127.203 1691.86 130.131 1694.73L135.738 1689.32C131.153 1684.8 125.423 1682.5 119.37 1682.5C103.255 1682.5 95.6761 1694.35 95.7431 1706Z" fill="#FCF7FF" fill-opacity="0.03"/>
<path fill-rule="evenodd" clip-rule="evenodd" d="M161.975 1729C146.306 1729 139.047 1717.73 139.047 1706C139.047 1694.29 146.563 1682.5 161.975 1682.5C177.324 1682.5 184.964 1694.29 184.836 1705.94C184.714 1717.47 177.641 1729 161.975 1729ZM161.975 1690.15C151.465 1690.15 147.134 1698.62 147.326 1706.13C147.515 1713.46 151.465 1721.29 161.975 1721.29C172.485 1721.29 176.432 1713.39 176.56 1706.07C176.685 1698.55 172.485 1690.15 161.975 1690.15Z" fill="#FCF7FF" fill-opacity="0.03"/>
<path d="M220.31 1683.33V1711.04L198.466 1683.39H191.649V1727.98H200.059V1697.92L223.494 1728.04V1727.98H228.72V1683.33H220.31Z" fill="#FCF7FF" fill-opacity="0.03"/>
<path d="M258.779 1729C242.219 1729 235.213 1717.6 235.149 1706C235.085 1694.35 242.664 1682.5 258.779 1682.5C264.829 1682.5 270.562 1684.8 275.147 1689.32L269.539 1694.73C266.612 1691.86 262.665 1690.53 258.779 1690.53C248.013 1690.53 243.366 1698.55 243.427 1706C243.492 1713.39 247.759 1721.1 258.779 1721.1C262.665 1721.1 267.055 1719.51 269.985 1716.58L275.718 1722.38C271.133 1726.9 265.211 1729 258.779 1729Z" fill="#FCF7FF" fill-opacity="0.03"/>
<path d="M280.3 1683.39V1727.98H313.674V1719.7H288.645V1709.64H312.785V1701.8H288.645V1691.55H313.674V1683.39H280.3Z" fill="#FCF7FF" fill-opacity="0.03"/>
<path fill-rule="evenodd" clip-rule="evenodd" d="M320.166 1727.98V1683.39C323.672 1683.39 327.176 1683.38 330.681 1683.36H330.685C334.186 1683.35 337.688 1683.33 341.186 1683.33C362.967 1683.33 363.028 1714.86 341.186 1714.86H328.576V1727.98H320.166ZM341.186 1691.36H328.576V1707.15H341.186C351.95 1707.15 351.883 1691.36 341.186 1691.36Z" fill="#FCF7FF" fill-opacity="0.03"/>
<path d="M360.61 1683.39V1691.04H374.747V1727.98H383.157V1691.04H397.293V1683.39H360.61Z" fill="#FCF7FF" fill-opacity="0.03"/>
<path d="M410.798 1727.98H402.452V1683.39H410.798V1727.98Z" fill="#FCF7FF" fill-opacity="0.03"/>
<path fill-rule="evenodd" clip-rule="evenodd" d="M418.054 1706C418.054 1717.73 425.316 1729 440.982 1729C456.648 1729 463.718 1717.47 463.846 1705.94C463.974 1694.29 456.33 1682.5 440.982 1682.5C425.569 1682.5 418.054 1694.29 418.054 1706ZM426.333 1706.13C426.143 1698.62 430.472 1690.15 440.982 1690.15C451.492 1690.15 455.693 1698.55 455.57 1706.07C455.439 1713.39 451.492 1721.29 440.982 1721.29C430.472 1721.29 426.522 1713.46 426.333 1706.13Z" fill="#FCF7FF" fill-opacity="0.03"/>
<path d="M499.317 1711.04V1683.33H507.724V1727.98H502.501V1728.04L479.063 1697.92V1727.98H470.659V1683.39H477.473L499.317 1711.04Z" fill="#FCF7FF" fill-opacity="0.03"/>
<path d="M528.167 1683.39V1727.98H561.54V1719.7H536.509V1709.64H560.646V1701.8H536.509V1691.55H561.54V1683.39H528.167Z" fill="#FCF7FF" fill-opacity="0.03"/>
<path d="M588.541 1718.11L602.043 1683.39H611.469L592.934 1728.17H584.212L565.677 1683.39H575.101L588.541 1718.11Z" fill="#FCF7FF" fill-opacity="0.03"/>
<path fill-rule="evenodd" clip-rule="evenodd" d="M614.653 1706C614.653 1717.73 621.912 1729 637.578 1729C653.247 1729 660.316 1717.47 660.445 1705.94C660.57 1694.29 652.929 1682.5 637.578 1682.5C622.168 1682.5 614.653 1694.29 614.653 1706ZM622.932 1706.13C622.742 1698.62 627.071 1690.15 637.578 1690.15C648.088 1690.15 652.291 1698.55 652.166 1706.07C652.038 1713.39 648.088 1721.29 637.578 1721.29C627.071 1721.29 623.121 1713.46 622.932 1706.13Z" fill="#FCF7FF" fill-opacity="0.03"/>
<path d="M666.617 1727.98V1683.39H675.027V1720.21H697.955V1727.98H666.617Z" fill="#FCF7FF" fill-opacity="0.03"/>
<path d="M732.025 1683.46V1709C732.025 1716.64 728.078 1721.29 721.136 1721.29C714.195 1721.29 709.607 1717.03 709.607 1709V1683.46H701.264V1709C701.264 1722.44 710.373 1728.93 721.069 1728.93C732.284 1728.93 740.368 1722.18 740.368 1709V1683.46H732.025Z" fill="#FCF7FF" fill-opacity="0.03"/>
<path d="M745.975 1691.04V1683.39H782.658V1691.04H768.519V1727.98H760.112V1691.04H745.975Z" fill="#FCF7FF" fill-opacity="0.03"/>
<path d="M787.814 1727.98H796.16V1683.39H787.814V1727.98Z" fill="#FCF7FF" fill-opacity="0.03"/>
<path fill-rule="evenodd" clip-rule="evenodd" d="M826.344 1729C810.675 1729 803.416 1717.73 803.416 1706C803.416 1694.29 810.935 1682.5 826.344 1682.5C841.693 1682.5 849.336 1694.29 849.208 1705.94C849.083 1717.47 842.013 1729 826.344 1729ZM826.344 1690.15C815.837 1690.15 811.505 1698.62 811.698 1706.13C811.887 1713.46 815.837 1721.29 826.344 1721.29C836.854 1721.29 840.801 1713.39 840.929 1706.07C841.057 1698.55 836.854 1690.15 826.344 1690.15Z" fill="#FCF7FF" fill-opacity="0.03"/>
<path d="M884.682 1683.33V1711.04L862.838 1683.39H856.022V1727.98H864.426V1697.92L887.866 1728.04V1727.98H893.089V1683.33H884.682Z" fill="#FCF7FF" fill-opacity="0.03"/>
<path d="M159 665.641V642.538H164.225C168.58 642.538 173.079 641.957 177.724 640.795C182.659 639.342 186.723 636.581 189.916 632.513C193.399 628.444 195.141 622.342 195.141 614.205V481.692C195.141 473.846 193.399 468.034 189.916 464.256C186.432 460.479 182.223 458.009 177.288 456.846C172.644 455.684 168.289 455.103 164.225 455.103H159V432H261.327V614.205C261.327 622.342 262.923 628.444 266.116 632.513C269.6 636.581 273.809 639.342 278.744 640.795C283.679 641.957 288.178 642.538 292.242 642.538H297.468V665.641H159ZM226.057 392.769C215.606 392.769 206.752 390.299 199.495 385.359C192.528 380.128 189.045 372.137 189.045 361.385C189.045 350.342 192.673 342.35 199.931 337.41C207.188 332.47 216.042 330 226.492 330C236.362 330 244.925 332.47 252.183 337.41C259.73 342.35 263.504 350.342 263.504 361.385C263.504 372.137 259.73 380.128 252.183 385.359C244.925 390.299 236.217 392.769 226.057 392.769Z" fill="white"/>
<path d="M313.388 665.641V642.538H314.259C320.936 642.538 326.741 641.812 331.676 640.359C336.901 638.906 340.966 636.145 343.868 632.077C346.771 627.718 348.223 621.179 348.223 612.462V483.436C348.223 475.299 346.916 469.197 344.304 465.128C341.691 461.06 338.063 458.444 333.418 457.282C328.773 455.829 323.258 455.103 316.872 455.103H315.565V432H407.006L412.667 462.949H414.844C420.65 451.906 426.891 443.915 433.568 438.974C440.534 433.744 447.937 430.402 455.775 428.949C463.903 427.205 472.466 426.333 481.465 426.333C503.817 426.333 521.38 433.017 534.152 446.385C546.925 459.752 553.312 481.111 553.312 510.462V611.59C553.312 620.598 554.328 627.282 556.36 631.641C558.682 636 562.02 638.906 566.374 640.359C570.729 641.812 576.099 642.538 582.485 642.538H583.792V665.641H487.126V522.231C487.126 503.342 484.513 488.812 479.288 478.641C474.063 468.47 465.064 463.385 452.291 463.385C442.712 463.385 435.164 466.581 429.649 472.974C424.133 479.077 420.214 487.359 417.892 497.821C415.57 507.991 414.408 519.034 414.408 530.949V614.205C414.408 622.342 415.715 628.444 418.327 632.513C420.94 636.581 424.569 639.342 429.213 640.795C433.858 641.957 439.373 642.538 445.76 642.538H447.066V665.641H313.388Z" fill="white"/>
<path d="M683.067 670C670.294 670 658.683 667.53 648.232 662.59C638.072 657.359 629.944 649.513 623.848 639.051C617.752 628.299 614.704 614.932 614.704 598.949C614.704 575.41 622.832 557.974 639.088 546.641C655.344 535.308 679.729 529.06 712.241 527.897L747.947 526.59V502.615C747.947 492.735 747.366 484.162 746.205 476.897C745.044 469.342 742.576 463.53 738.802 459.462C735.029 455.103 729.078 452.923 720.95 452.923C713.692 452.923 707.887 454.957 703.532 459.026C699.178 463.094 696.13 468.761 694.388 476.026C692.647 483 691.776 490.991 691.776 500C672.326 500 657.667 497.821 647.797 493.462C637.927 489.103 632.992 481.547 632.992 470.795C632.992 460.043 637.056 451.47 645.184 445.077C653.312 438.684 664.198 434.034 677.842 431.128C691.485 427.932 706.435 426.333 722.691 426.333C753.172 426.333 775.959 431.855 791.054 442.897C806.44 453.94 814.132 473.12 814.132 500.436V611.59C814.132 619.436 814.858 625.684 816.309 630.333C818.051 634.692 820.809 637.889 824.583 639.923C828.647 641.667 833.872 642.538 840.258 642.538H842V665.641H761.009L751.865 635.564H747.947C741.56 643.41 735.464 649.949 729.658 655.18C724.143 660.12 717.757 663.752 710.499 666.077C703.242 668.692 694.098 670 683.067 670ZM707.016 638.179C715.434 638.179 722.691 636 728.787 631.641C734.884 626.991 739.528 620.453 742.721 612.026C746.205 603.598 747.947 593.718 747.947 582.385V549.692L728.352 551C716.741 551.581 707.596 553.906 700.92 557.974C694.243 561.752 689.453 567.274 686.55 574.538C683.648 581.513 682.196 590.231 682.196 600.692C682.196 608.829 683.067 615.803 684.809 621.615C686.551 627.137 689.308 631.35 693.082 634.256C696.856 636.872 701.5 638.179 707.016 638.179Z" fill="white"/>
<path d="M484.008 718V716.092H485.52C485.88 716.092 486.192 716.044 486.456 715.948C486.744 715.828 486.96 715.6 487.104 715.264C487.272 714.928 487.356 714.424 487.356 713.752V696.544C487.356 695.848 487.272 695.344 487.104 695.032C486.96 694.696 486.744 694.48 486.456 694.384C486.192 694.264 485.88 694.204 485.52 694.204H484.008V692.296H496.428V694.204H494.916C494.58 694.204 494.268 694.264 493.98 694.384C493.692 694.48 493.464 694.696 493.296 695.032C493.152 695.344 493.08 695.848 493.08 696.544V713.752C493.08 714.424 493.152 714.928 493.296 715.264C493.464 715.6 493.692 715.828 493.98 715.948C494.268 716.044 494.58 716.092 494.916 716.092H496.428V718H484.008ZM511.885 718.36C509.101 718.36 506.785 717.808 504.937 716.704C503.089 715.6 501.709 714.064 500.797 712.096C499.885 710.104 499.429 707.776 499.429 705.112C499.429 702.52 499.897 700.24 500.833 698.272C501.769 696.28 503.161 694.732 505.009 693.628C506.857 692.5 509.137 691.936 511.849 691.936C513.697 691.936 515.221 692.128 516.421 692.512C517.645 692.872 518.557 693.364 519.157 693.988C519.757 694.612 520.057 695.32 520.057 696.112C520.057 697 519.673 697.744 518.905 698.344C518.137 698.944 517.021 699.244 515.557 699.244C515.557 698.452 515.437 697.672 515.197 696.904C514.957 696.136 514.549 695.5 513.973 694.996C513.397 694.492 512.605 694.24 511.597 694.24C510.085 694.24 508.873 694.672 507.961 695.536C507.073 696.376 506.437 697.6 506.053 699.208C505.669 700.816 505.477 702.784 505.477 705.112C505.477 707.416 505.705 709.336 506.161 710.872C506.641 712.408 507.409 713.56 508.465 714.328C509.545 715.096 510.973 715.48 512.749 715.48C513.925 715.48 514.933 715.312 515.773 714.976C516.613 714.616 517.321 714.172 517.897 713.644C518.497 713.116 519.001 712.588 519.409 712.06C519.601 712.204 519.745 712.42 519.841 712.708C519.961 712.996 520.021 713.296 520.021 713.608C520.021 714.112 519.877 714.64 519.589 715.192C519.325 715.744 518.881 716.26 518.257 716.74C517.633 717.22 516.793 717.616 515.737 717.928C514.705 718.216 513.421 718.36 511.885 718.36ZM522.504 718V716.092H524.016C524.352 716.092 524.652 716.044 524.916 715.948C525.204 715.852 525.432 715.648 525.6 715.336C525.768 715.024 525.852 714.556 525.852 713.932V696.544C525.852 695.848 525.768 695.344 525.6 695.032C525.456 694.696 525.24 694.48 524.952 694.384C524.688 694.264 524.376 694.204 524.016 694.204H522.504V692.296H542.484L542.628 698.92H540.108L539.928 697.228C539.88 696.628 539.76 696.136 539.568 695.752C539.4 695.344 539.16 695.032 538.848 694.816C538.536 694.6 538.128 694.492 537.624 694.492H531.576V703.492H540.108V705.652H531.576V715.804H538.776C539.256 715.804 539.652 715.684 539.964 715.444C540.276 715.204 540.516 714.88 540.684 714.472C540.876 714.064 541.008 713.596 541.08 713.068L541.368 711.376H543.852L543.6 718H522.504ZM555.375 718V716.092H556.887C557.223 716.092 557.523 716.044 557.787 715.948C558.075 715.828 558.303 715.6 558.471 715.264C558.639 714.928 558.723 714.424 558.723 713.752V696.4C558.723 695.752 558.639 695.272 558.471 694.96C558.303 694.648 558.075 694.444 557.787 694.348C557.523 694.252 557.223 694.204 556.887 694.204H555.375V692.296H563.367L576.075 710.26V696.4C576.075 695.752 575.991 695.272 575.823 694.96C575.655 694.648 575.427 694.444 575.139 694.348C574.875 694.252 574.575 694.204 574.239 694.204H572.727V692.296H582.123V694.204H580.611C580.275 694.204 579.963 694.264 579.675 694.384C579.411 694.48 579.195 694.696 579.027 695.032C578.859 695.344 578.775 695.848 578.775 696.544V718H575.463L561.423 698.164V713.752C561.423 714.424 561.507 714.928 561.675 715.264C561.843 715.6 562.059 715.828 562.323 715.948C562.611 716.044 562.923 716.092 563.259 716.092H564.771V718H555.375ZM593.754 718.36C590.706 718.36 588.39 717.496 586.806 715.768C585.222 714.016 584.43 711.58 584.43 708.46C584.43 705.076 585.21 702.532 586.77 700.828C588.33 699.1 590.526 698.236 593.358 698.236C595.974 698.236 598.026 698.968 599.514 700.432C601.026 701.896 601.782 704.056 601.782 706.912V708.748H589.974C590.022 710.356 590.238 711.676 590.622 712.708C591.006 713.716 591.546 714.46 592.242 714.94C592.962 715.42 593.814 715.66 594.798 715.66C595.638 715.66 596.382 715.54 597.03 715.3C597.702 715.036 598.278 714.688 598.758 714.256C599.238 713.8 599.61 713.296 599.874 712.744C600.21 712.912 600.45 713.152 600.594 713.464C600.762 713.752 600.846 714.1 600.846 714.508C600.846 715.18 600.594 715.816 600.09 716.416C599.586 716.992 598.806 717.46 597.75 717.82C596.718 718.18 595.386 718.36 593.754 718.36ZM596.274 706.444C596.274 705.22 596.178 704.176 595.986 703.312C595.794 702.424 595.494 701.752 595.086 701.296C594.678 700.816 594.126 700.576 593.43 700.576C592.758 700.576 592.17 700.804 591.666 701.26C591.186 701.692 590.802 702.352 590.514 703.24C590.25 704.104 590.094 705.172 590.046 706.444H596.274ZM612.053 718.36C610.445 718.36 609.161 717.94 608.201 717.1C607.241 716.26 606.761 714.784 606.761 712.672V701.152H604.061V699.316C604.829 699.316 605.513 699.16 606.113 698.848C606.737 698.536 607.229 698.188 607.589 697.804C607.949 697.42 608.273 696.94 608.561 696.364C608.849 695.764 609.077 695.056 609.245 694.24H612.233V698.704H616.841V701.152H612.233V712.312C612.233 713.392 612.413 714.184 612.773 714.688C613.157 715.192 613.769 715.444 614.609 715.444C615.089 715.444 615.533 715.42 615.941 715.372C616.373 715.3 616.781 715.216 617.165 715.12V717.46C616.781 717.628 616.145 717.82 615.257 718.036C614.393 718.252 613.325 718.36 612.053 718.36ZM620.451 702.52C620.283 702.016 620.079 701.632 619.839 701.368C619.623 701.08 619.359 700.888 619.047 700.792C618.759 700.672 618.375 700.612 617.895 700.612H617.787V698.704H628.335V700.612H627.867C627.147 700.612 626.607 700.72 626.247 700.936C625.887 701.128 625.707 701.524 625.707 702.124C625.707 702.316 625.731 702.556 625.779 702.844C625.851 703.132 625.923 703.408 625.995 703.672L627.327 708.352C627.495 708.928 627.639 709.528 627.759 710.152C627.903 710.752 628.023 711.328 628.119 711.88C628.239 712.408 628.335 712.876 628.407 713.284H628.515C628.587 712.876 628.671 712.468 628.767 712.06C628.863 711.652 628.983 711.208 629.127 710.728C629.295 710.248 629.475 709.72 629.667 709.144L633.339 698.884H635.679L639.207 709.504C639.351 709.936 639.471 710.332 639.567 710.692C639.687 711.052 639.771 711.388 639.819 711.7C639.891 712.012 639.951 712.3 639.999 712.564C640.071 712.828 640.119 713.068 640.143 713.284H640.251C640.323 712.876 640.395 712.504 640.467 712.168C640.563 711.808 640.671 711.412 640.791 710.98C640.911 710.548 641.055 710.032 641.223 709.432L642.807 704.176C642.903 703.864 642.975 703.54 643.023 703.204C643.095 702.844 643.131 702.568 643.131 702.376C643.131 701.752 642.927 701.308 642.519 701.044C642.135 700.756 641.547 700.612 640.755 700.612H640.503V698.704H648.747V700.612H648.279C647.823 700.612 647.439 700.684 647.127 700.828C646.815 700.972 646.539 701.248 646.299 701.656C646.083 702.04 645.843 702.628 645.579 703.42L640.935 718H637.047L633.123 706.048L628.983 718H625.059L620.451 702.52ZM659.707 718.36C656.827 718.36 654.559 717.532 652.903 715.876C651.247 714.196 650.419 711.664 650.419 708.28C650.419 704.896 651.211 702.376 652.795 700.72C654.379 699.064 656.719 698.236 659.815 698.236C662.695 698.236 664.963 699.064 666.619 700.72C668.275 702.376 669.103 704.896 669.103 708.28C669.103 711.664 668.299 714.196 666.691 715.876C665.107 717.532 662.779 718.36 659.707 718.36ZM659.779 716.092C660.715 716.092 661.447 715.804 661.975 715.228C662.527 714.628 662.923 713.752 663.163 712.6C663.403 711.424 663.523 709.984 663.523 708.28C663.523 706.552 663.403 705.124 663.163 703.996C662.923 702.844 662.527 701.98 661.975 701.404C661.423 700.828 660.691 700.54 659.779 700.54C658.843 700.54 658.099 700.828 657.547 701.404C656.995 701.98 656.599 702.844 656.359 703.996C656.119 705.124 655.999 706.552 655.999 708.28C655.999 709.984 656.119 711.424 656.359 712.6C656.599 713.752 656.995 714.628 657.547 715.228C658.123 715.804 658.867 716.092 659.779 716.092ZM671.525 718V716.092H671.633C672.185 716.092 672.665 716.032 673.073 715.912C673.481 715.792 673.805 715.552 674.045 715.192C674.285 714.808 674.405 714.244 674.405 713.5V703.06C674.405 702.34 674.297 701.812 674.081 701.476C673.865 701.116 673.565 700.888 673.181 700.792C672.797 700.672 672.341 700.612 671.813 700.612H671.705V698.704H678.977L679.697 701.512H679.877C680.189 700.792 680.549 700.192 680.957 699.712C681.365 699.232 681.881 698.872 682.505 698.632C683.153 698.392 683.969 698.272 684.953 698.272C686.369 698.272 687.413 698.524 688.085 699.028C688.757 699.532 689.093 700.252 689.093 701.188C689.093 702.292 688.685 703.156 687.869 703.78C687.077 704.38 685.961 704.68 684.521 704.68C684.521 704.008 684.461 703.456 684.341 703.024C684.245 702.592 684.065 702.268 683.801 702.052C683.561 701.812 683.213 701.692 682.757 701.692C682.133 701.692 681.629 701.908 681.245 702.34C680.861 702.772 680.573 703.312 680.381 703.96C680.189 704.584 680.057 705.22 679.985 705.868C679.913 706.516 679.877 707.044 679.877 707.452V713.68C679.877 714.376 679.985 714.904 680.201 715.264C680.417 715.6 680.717 715.828 681.101 715.948C681.485 716.044 681.917 716.092 682.397 716.092H683.549V718H671.525ZM690.26 718V716.092H690.692C691.052 716.092 691.424 716.044 691.808 715.948C692.216 715.828 692.552 715.6 692.816 715.264C693.104 714.928 693.248 714.424 693.248 713.752V694.744C693.248 694.096 693.104 693.616 692.816 693.304C692.528 692.992 692.18 692.788 691.772 692.692C691.388 692.596 691.028 692.548 690.692 692.548H690.26V690.64H698.72V704.536C698.72 704.848 698.708 705.22 698.684 705.652C698.66 706.084 698.636 706.504 698.612 706.912C698.612 707.296 698.6 707.62 698.576 707.884C698.552 708.148 698.54 708.28 698.54 708.28L703.076 703.204C703.34 702.892 703.544 702.64 703.688 702.448C703.832 702.232 703.928 702.052 703.976 701.908C704.024 701.74 704.048 701.596 704.048 701.476C704.048 701.164 703.88 700.924 703.544 700.756C703.232 700.588 702.776 700.504 702.176 700.504V698.704H711.248V700.504C710.84 700.504 710.432 700.564 710.024 700.684C709.616 700.804 709.208 700.996 708.8 701.26C708.392 701.5 707.972 701.812 707.54 702.196C707.108 702.58 706.652 703.036 706.172 703.564L703.904 706.156L708.692 713.284C709.124 713.908 709.544 714.436 709.952 714.868C710.384 715.276 710.804 715.588 711.212 715.804C711.644 715.996 712.052 716.092 712.436 716.092H712.544V718H712.04C710.72 718 709.604 717.976 708.692 717.928C707.804 717.856 707.048 717.724 706.424 717.532C705.8 717.316 705.248 716.992 704.768 716.56C704.312 716.128 703.844 715.54 703.364 714.796L700.16 709.756L698.72 710.836V713.752C698.72 714.424 698.852 714.928 699.116 715.264C699.404 715.6 699.752 715.828 700.16 715.948C700.568 716.044 700.94 716.092 701.276 716.092H701.708V718H690.26ZM722.031 718V716.092H722.463C722.895 716.092 723.279 716.02 723.615 715.876C723.951 715.732 724.251 715.48 724.515 715.12C724.803 714.736 725.079 714.184 725.343 713.464L733.155 692.296H738.087L745.611 713.5C745.851 714.172 746.103 714.7 746.367 715.084C746.655 715.444 746.955 715.708 747.267 715.876C747.603 716.02 747.963 716.092 748.347 716.092H748.995V718H737.115V716.092H738.519C738.879 716.092 739.227 715.984 739.563 715.768C739.899 715.552 740.067 715.192 740.067 714.688C740.067 714.496 740.043 714.304 739.995 714.112C739.971 713.92 739.935 713.74 739.887 713.572C739.839 713.404 739.791 713.26 739.743 713.14L738.483 709.54H729.735L728.691 712.636C728.643 712.828 728.583 713.044 728.511 713.284C728.439 713.524 728.379 713.776 728.331 714.04C728.283 714.28 728.259 714.496 728.259 714.688C728.259 715.144 728.427 715.492 728.763 715.732C729.099 715.972 729.471 716.092 729.879 716.092H731.391V718H722.031ZM730.491 707.344H737.763L735.855 701.44C735.687 700.888 735.507 700.3 735.315 699.676C735.123 699.028 734.943 698.38 734.775 697.732C734.607 697.084 734.451 696.484 734.307 695.932C734.211 696.316 734.091 696.736 733.947 697.192C733.803 697.624 733.659 698.08 733.515 698.56C733.371 699.016 733.215 699.484 733.047 699.964C732.903 700.42 732.759 700.852 732.615 701.26L730.491 707.344ZM758.909 718.36C757.157 718.36 755.609 718.048 754.265 717.424C752.921 716.776 751.865 715.732 751.097 714.292C750.353 712.828 749.981 710.872 749.981 708.424C749.981 705.832 750.365 703.804 751.133 702.34C751.925 700.852 752.981 699.796 754.301 699.172C755.645 698.548 757.145 698.236 758.801 698.236C760.361 698.236 761.669 698.404 762.725 698.74C763.781 699.076 764.573 699.532 765.101 700.108C765.653 700.66 765.929 701.296 765.929 702.016C765.929 702.52 765.797 703.012 765.533 703.492C765.293 703.948 764.837 704.332 764.165 704.644C763.493 704.932 762.533 705.076 761.285 705.076C761.285 704.236 761.213 703.468 761.069 702.772C760.925 702.076 760.685 701.512 760.349 701.08C760.013 700.648 759.545 700.432 758.945 700.432C758.249 700.432 757.637 700.672 757.109 701.152C756.605 701.608 756.209 702.412 755.921 703.564C755.657 704.716 755.525 706.324 755.525 708.388C755.525 709.996 755.669 711.34 755.957 712.42C756.269 713.5 756.737 714.316 757.361 714.868C757.985 715.396 758.801 715.66 759.809 715.66C760.649 715.66 761.405 715.54 762.077 715.3C762.773 715.036 763.373 714.688 763.877 714.256C764.381 713.8 764.765 713.296 765.029 712.744C765.317 712.912 765.533 713.152 765.677 713.464C765.821 713.752 765.893 714.064 765.893 714.4C765.893 715 765.641 715.612 765.137 716.236C764.657 716.836 763.901 717.34 762.869 717.748C761.861 718.156 760.541 718.36 758.909 718.36ZM777.893 718.36C776.141 718.36 774.593 718.048 773.249 717.424C771.905 716.776 770.849 715.732 770.081 714.292C769.337 712.828 768.965 710.872 768.965 708.424C768.965 705.832 769.349 703.804 770.117 702.34C770.909 700.852 771.965 699.796 773.285 699.172C774.629 698.548 776.129 698.236 777.785 698.236C779.345 698.236 780.653 698.404 781.709 698.74C782.765 699.076 783.557 699.532 784.085 700.108C784.637 700.66 784.913 701.296 784.913 702.016C784.913 702.52 784.781 703.012 784.517 703.492C784.277 703.948 783.821 704.332 783.149 704.644C782.477 704.932 781.517 705.076 780.269 705.076C780.269 704.236 780.197 703.468 780.053 702.772C779.909 702.076 779.669 701.512 779.333 701.08C778.997 700.648 778.529 700.432 777.929 700.432C777.233 700.432 776.621 700.672 776.093 701.152C775.589 701.608 775.193 702.412 774.905 703.564C774.641 704.716 774.509 706.324 774.509 708.388C774.509 709.996 774.653 711.34 774.941 712.42C775.253 713.5 775.721 714.316 776.345 714.868C776.969 715.396 777.785 715.66 778.793 715.66C779.633 715.66 780.389 715.54 781.061 715.3C781.757 715.036 782.357 714.688 782.861 714.256C783.365 713.8 783.749 713.296 784.013 712.744C784.301 712.912 784.517 713.152 784.661 713.464C784.805 713.752 784.877 714.064 784.877 714.4C784.877 715 784.625 715.612 784.121 716.236C783.641 716.836 782.885 717.34 781.853 717.748C780.845 718.156 779.525 718.36 777.893 718.36ZM797.274 718.36C794.226 718.36 791.91 717.496 790.326 715.768C788.742 714.016 787.95 711.58 787.95 708.46C787.95 705.076 788.73 702.532 790.29 700.828C791.85 699.1 794.046 698.236 796.878 698.236C799.494 698.236 801.546 698.968 803.034 700.432C804.546 701.896 805.302 704.056 805.302 706.912V708.748H793.494C793.542 710.356 793.758 711.676 794.142 712.708C794.526 713.716 795.066 714.46 795.762 714.94C796.482 715.42 797.334 715.66 798.318 715.66C799.158 715.66 799.902 715.54 800.55 715.3C801.222 715.036 801.798 714.688 802.278 714.256C802.758 713.8 803.13 713.296 803.394 712.744C803.73 712.912 803.97 713.152 804.114 713.464C804.282 713.752 804.366 714.1 804.366 714.508C804.366 715.18 804.114 715.816 803.61 716.416C803.106 716.992 802.326 717.46 801.27 717.82C800.238 718.18 798.906 718.36 797.274 718.36ZM799.794 706.444C799.794 705.22 799.698 704.176 799.506 703.312C799.314 702.424 799.014 701.752 798.606 701.296C798.198 700.816 797.646 700.576 796.95 700.576C796.278 700.576 795.69 700.804 795.186 701.26C794.706 701.692 794.322 702.352 794.034 703.24C793.77 704.104 793.614 705.172 793.566 706.444H799.794ZM815.14 718.36C813.412 718.36 812.008 718.18 810.928 717.82C809.872 717.436 809.104 716.932 808.624 716.308C808.144 715.66 807.904 714.94 807.904 714.148C807.904 713.356 808.096 712.768 808.48 712.384C808.864 712 809.32 711.748 809.848 711.628C810.376 711.484 810.844 711.412 811.252 711.412C811.252 712.396 811.408 713.26 811.72 714.004C812.056 714.724 812.512 715.276 813.088 715.66C813.688 716.044 814.372 716.236 815.14 716.236C816.388 716.236 817.288 715.996 817.84 715.516C818.416 715.036 818.704 714.46 818.704 713.788C818.704 713.26 818.572 712.804 818.308 712.42C818.044 712.012 817.588 711.64 816.94 711.304C816.292 710.944 815.404 710.572 814.276 710.188C812.98 709.732 811.888 709.24 811 708.712C810.112 708.16 809.428 707.512 808.948 706.768C808.492 706 808.264 705.076 808.264 703.996C808.264 702.076 808.972 700.648 810.388 699.712C811.804 698.752 813.676 698.272 816.004 698.272C817.516 698.272 818.728 698.44 819.64 698.776C820.576 699.088 821.248 699.508 821.656 700.036C822.088 700.54 822.304 701.068 822.304 701.62C822.304 702.436 822.016 703.06 821.44 703.492C820.888 703.9 819.952 704.104 818.632 704.104C818.632 702.904 818.368 701.98 817.84 701.332C817.312 700.66 816.52 700.324 815.464 700.324C814.96 700.324 814.48 700.408 814.024 700.576C813.592 700.744 813.232 700.996 812.944 701.332C812.68 701.644 812.548 702.052 812.548 702.556C812.548 703.06 812.68 703.504 812.944 703.888C813.232 704.272 813.736 704.644 814.456 705.004C815.176 705.364 816.184 705.772 817.48 706.228C818.56 706.588 819.508 707.032 820.324 707.56C821.14 708.064 821.776 708.688 822.232 709.432C822.712 710.152 822.952 711.016 822.952 712.024C822.952 714.016 822.268 715.576 820.9 716.704C819.556 717.808 817.636 718.36 815.14 718.36ZM832.718 718.36C830.99 718.36 829.586 718.18 828.506 717.82C827.45 717.436 826.682 716.932 826.202 716.308C825.722 715.66 825.482 714.94 825.482 714.148C825.482 713.356 825.674 712.768 826.058 712.384C826.442 712 826.898 711.748 827.426 711.628C827.954 711.484 828.422 711.412 828.83 711.412C828.83 712.396 828.986 713.26 829.298 714.004C829.634 714.724 830.09 715.276 830.666 715.66C831.266 716.044 831.95 716.236 832.718 716.236C833.966 716.236 834.866 715.996 835.418 715.516C835.994 715.036 836.282 714.46 836.282 713.788C836.282 713.26 836.15 712.804 835.886 712.42C835.622 712.012 835.166 711.64 834.518 711.304C833.87 710.944 832.982 710.572 831.854 710.188C830.558 709.732 829.466 709.24 828.578 708.712C827.69 708.16 827.006 707.512 826.526 706.768C826.07 706 825.842 705.076 825.842 703.996C825.842 702.076 826.55 700.648 827.966 699.712C829.382 698.752 831.254 698.272 833.582 698.272C835.094 698.272 836.306 698.44 837.218 698.776C838.154 699.088 838.826 699.508 839.234 700.036C839.666 700.54 839.882 701.068 839.882 701.62C839.882 702.436 839.594 703.06 839.018 703.492C838.466 703.9 837.53 704.104 836.21 704.104C836.21 702.904 835.946 701.98 835.418 701.332C834.89 700.66 834.098 700.324 833.042 700.324C832.538 700.324 832.058 700.408 831.602 700.576C831.17 700.744 830.81 700.996 830.522 701.332C830.258 701.644 830.126 702.052 830.126 702.556C830.126 703.06 830.258 703.504 830.522 703.888C830.81 704.272 831.314 704.644 832.034 705.004C832.754 705.364 833.762 705.772 835.058 706.228C836.138 706.588 837.086 707.032 837.902 707.56C838.718 708.064 839.354 708.688 839.81 709.432C840.29 710.152 840.53 711.016 840.53 712.024C840.53 714.016 839.846 715.576 838.478 716.704C837.134 717.808 835.214 718.36 832.718 718.36Z" fill="white"/>
</g>
<defs>
<clipPath id="clip0_4509_8096">
<rect width="1000" height="1000" fill="white"/>
</clipPath>
</defs>
</svg>
